<svg width="68" height="73" viewBox="0 0 68 73" fill="none" xmlns="http://www.w3.org/2000/svg">
<g filter="url(#filter0_d_586_6712)">
<rect x="4" y="2" width="60" height="60" rx="30" fill="#06C996"/>
<path d="M34 17C42.2845 17 49 23.7155 49 32C49 40.2845 42.2845 47 34 47H19L23.3935 42.6065C21.9986 41.2151 20.8924 39.5618 20.1384 37.7416C19.3845 35.9214 18.9976 33.9702 19 32C19 23.7155 25.7155 17 34 17ZM40 33.5H28C28 35.0913 28.6322 36.6174 29.7574 37.7426C30.8826 38.8679 32.4087 39.5 34 39.5C35.5913 39.5 37.1174 38.8679 38.2427 37.7426C39.3679 36.6174 40 35.0913 40 33.5Z" fill="white"/>
</g>
<rect x="46" width="20" height="20" rx="10" fill="#FF2B2B"/>
<path d="M54.0397 7.21875V6.04875H56.3797V14.25H55.0859V7.21875H54.0397Z" fill="white"/>
<defs>
<filter id="filter0_d_586_6712" x="0" y="2" width="68" height="71" filterUnits="userSpaceOnUse" color-interpolation-filters="sRGB">
<feFlood flood-opacity="0" result="BackgroundImageFix"/>
<feColorMatrix in="SourceAlpha" type="matrix" values="0 0 0 0 0 0 0 0 0 0 0 0 0 0 0 0 0 0 127 0" result="hardAlpha"/>
<feOffset dy="7"/>
<feGaussianBlur stdDeviation="2"/>
<feComposite in2="hardAlpha" operator="out"/>
<feColorMatrix type="matrix" values="0 0 0 0 0 0 0 0 0 0 0 0 0 0 0 0 0 0 0.35 0"/>
<feBlend mode="normal" in2="BackgroundImageFix" result="effect1_dropShadow_586_6712"/>
<feBlend mode="normal" in="SourceGraphic" in2="effect1_dropShadow_586_6712" result="shape"/>
</filter>
</defs>
</svg>
