<svg width="29" height="30" viewBox="0 0 29 30" fill="none" xmlns="http://www.w3.org/2000/svg">
<path d="M9.53247 3.26855H19.4671C23.2517 3.26855 26.3267 6.34355 26.3267 10.1282V20.0628C26.3267 21.8821 25.604 23.6268 24.3176 24.9133C23.0311 26.1997 21.2864 26.9224 19.4671 26.9224H9.53247C5.74785 26.9224 2.67285 23.8474 2.67285 20.0628V10.1282C2.67285 8.30889 3.39556 6.56412 4.68199 5.27769C5.96841 3.99126 7.71318 3.26855 9.53247 3.26855ZM9.29593 5.63394C8.16672 5.63394 7.08376 6.08252 6.28529 6.88099C5.48681 7.67946 5.03824 8.76242 5.03824 9.89163V20.2993C5.03824 22.6529 6.94237 24.557 9.29593 24.557H19.7036C20.8328 24.557 21.9158 24.1084 22.7143 23.31C23.5127 22.5115 23.9613 21.4285 23.9613 20.2993V9.89163C23.9613 7.53807 22.0572 5.63394 19.7036 5.63394H9.29593ZM20.7089 7.40798C21.101 7.40798 21.477 7.56373 21.7543 7.84098C22.0315 8.11823 22.1873 8.49426 22.1873 8.88634C22.1873 9.27843 22.0315 9.65446 21.7543 9.9317C21.477 10.209 21.101 10.3647 20.7089 10.3647C20.3168 10.3647 19.9408 10.209 19.6635 9.9317C19.3863 9.65446 19.2305 9.27843 19.2305 8.88634C19.2305 8.49426 19.3863 8.11823 19.6635 7.84098C19.9408 7.56373 20.3168 7.40798 20.7089 7.40798ZM14.4998 9.18202C16.0681 9.18202 17.5722 9.80504 18.6812 10.914C19.7902 12.023 20.4132 13.5271 20.4132 15.0955C20.4132 16.6638 19.7902 18.1679 18.6812 19.2769C17.5722 20.3859 16.0681 21.0089 14.4998 21.0089C12.9314 21.0089 11.4273 20.3859 10.3183 19.2769C9.20934 18.1679 8.58631 16.6638 8.58631 15.0955C8.58631 13.5271 9.20934 12.023 10.3183 10.914C11.4273 9.80504 12.9314 9.18202 14.4998 9.18202ZM14.4998 11.5474C13.5588 11.5474 12.6563 11.9212 11.9909 12.5866C11.3255 13.252 10.9517 14.1545 10.9517 15.0955C10.9517 16.0365 11.3255 16.939 11.9909 17.6043C12.6563 18.2697 13.5588 18.6436 14.4998 18.6436C15.4408 18.6436 16.3433 18.2697 17.0086 17.6043C17.674 16.939 18.0479 16.0365 18.0479 15.0955C18.0479 14.1545 17.674 13.252 17.0086 12.5866C16.3433 11.9212 15.4408 11.5474 14.4998 11.5474Z" fill="#8C8C8C"/>
</svg>
