<svg width="29" height="30" viewBox="0 0 29 30" fill="none" xmlns="http://www.w3.org/2000/svg">
<path d="M22.4709 4.45166C23.0983 4.45166 23.6999 4.70087 24.1435 5.14447C24.5871 5.58806 24.8363 6.18971 24.8363 6.81704V23.3747C24.8363 24.0021 24.5871 24.6037 24.1435 25.0473C23.6999 25.4909 23.0983 25.7401 22.4709 25.7401H5.91324C5.2859 25.7401 4.68425 25.4909 4.24066 25.0473C3.79706 24.6037 3.54785 24.0021 3.54785 23.3747V6.81704C3.54785 6.18971 3.79706 5.58806 4.24066 5.14447C4.68425 4.70087 5.2859 4.45166 5.91324 4.45166H22.4709ZM21.8796 22.7834V16.5151C21.8796 15.4926 21.4734 14.5119 20.7503 13.7888C20.0272 13.0658 19.0466 12.6595 18.024 12.6595C17.0187 12.6595 15.8479 13.2745 15.2802 14.197V12.8843H11.9804V22.7834H15.2802V16.9527C15.2802 16.042 16.0134 15.2969 16.9241 15.2969C17.3632 15.2969 17.7844 15.4714 18.0949 15.7819C18.4054 16.0924 18.5799 16.5136 18.5799 16.9527V22.7834H21.8796ZM8.1367 11.0274C8.66366 11.0274 9.16904 10.8181 9.54166 10.4455C9.91429 10.0729 10.1236 9.56747 10.1236 9.04051C10.1236 7.9406 9.2366 7.04176 8.1367 7.04176C7.6066 7.04176 7.09821 7.25234 6.72337 7.62718C6.34853 8.00201 6.13795 8.51041 6.13795 9.04051C6.13795 10.1404 7.03679 11.0274 8.1367 11.0274ZM9.78064 22.7834V12.8843H6.50458V22.7834H9.78064Z" fill="#8C8C8C"/>
</svg>
