<svg width="30" height="30" viewBox="0 0 30 30" fill="none" xmlns="http://www.w3.org/2000/svg">
<path d="M12.7481 18.6434L18.8853 15.0959L12.7481 11.5484V18.6434ZM26.4178 9.38438C26.5715 9.94016 26.6779 10.6851 26.7489 11.6311C26.8317 12.5771 26.8671 13.3931 26.8671 14.1026L26.9381 15.0959C26.9381 17.6855 26.7489 19.5894 26.4178 20.8073C26.1222 21.8716 25.4363 22.5574 24.3721 22.8531C23.8163 23.0068 22.7993 23.1132 21.2384 23.1842C19.7012 23.2669 18.294 23.3024 16.9933 23.3024L15.1131 23.3734C10.1584 23.3734 7.07209 23.1842 5.85411 22.8531C4.78986 22.5574 4.10401 21.8716 3.80839 20.8073C3.65466 20.2516 3.54824 19.5066 3.47729 18.5606C3.39451 17.6146 3.35904 16.7987 3.35904 16.0892L3.28809 15.0959C3.28809 12.5062 3.47729 10.6024 3.80839 9.38438C4.10401 8.32013 4.78986 7.63428 5.85411 7.33866C6.40989 7.18493 7.42684 7.07851 8.98774 7.00756C10.525 6.92478 11.9322 6.88931 13.2329 6.88931L15.1131 6.81836C20.0678 6.81836 23.1541 7.00756 24.3721 7.33866C25.4363 7.63428 26.1222 8.32013 26.4178 9.38438Z" fill="#8C8C8C"/>
</svg>
