<svg width="90.919" height="50" viewBox="0 0 90.919 50" fill="none" xmlns="http://www.w3.org/2000/svg"><path d="M7.679 0H21.637l-2.458 2.13H4.821L7.679 0Z" fill="#CFFF47"/><path d="M50.336 5.361v24.801l-4.541 4.377v11.185L41.579 49.776H0.224V7.631l4.541 -4.377 25.786 0.112L34.443 0.336h11.028L50.336 5.361Z" stroke="#CFFF47" stroke-width="0.44842909987669544"/><path d="M32.623 0h-1.879L28.251 2.13h1.938L32.623 0Z" fill="#CFFF47"/><path d="M50.336 32.735v1.879L48.206 37.108v-1.938L50.336 32.735Z" fill="#CFFF47"/><path d="M29.933 0h-1.879L25.56 2.13h1.938L29.933 0Z" fill="#CFFF47"/><path d="M50.336 35.426v1.879L48.206 39.798v-1.938L50.336 35.426Z" fill="#CFFF47"/><path d="M27.354 0h-1.879L22.982 2.13h1.938L27.354 0Z" fill="#CFFF47"/><path d="M50.336 38.004v1.879L48.206 42.377v-1.938L50.336 38.004Z" fill="#CFFF47"/><path d="M24.776 0h-1.879L20.404 2.13h1.938L24.776 0Z" fill="#CFFF47"/><path d="M50.336 40.583v1.879L48.206 44.955v-1.938L50.336 40.583Z" fill="#CFFF47"/><path opacity="0.99" d="M48.094 5.027v26.288l-2.757 2.759v11.034L41.12 49.327H0.897V8.111l3.893 -3.895h26.112L34.47 1.457h10.218L48.094 5.027Z" fill="#CFFF47"/></svg>