<svg id="Layer_1" data-name="Layer 1" xmlns="http://www.w3.org/2000/svg" viewBox="0 0 50.56 50" width="50.56" height="50"><defs><style>.cls-1,.cls-3{fill:#cfff47;}.cls-2{fill:none;stroke:#cfff47;stroke-width:0.45px;}.cls-3{isolation:isolate;opacity:0.99;}</style></defs><path class="cls-1" d="M7.68 0h14l-2.5 2.13H4.82Z"/><path class="cls-2" d="M50.34 5.36v24.8l-4.54 4.38v11.18l-4.22 4.06H0.22v-42.15L4.77 3.25 30.55 3.37l3.89 -3h11Z"/><path class="cls-1" d="M32.62 0h-1.88L28.25 2.13h1.94Z"/><path class="cls-1" d="M50.34 32.74v1.87l-2.13 2.5v-1.94Z"/><path class="cls-1" d="M29.93 0H28.05l-2.49 2.13H27.5Z"/><path class="cls-1" d="M50.34 35.43v1.88l-2.13 2.49v-1.94Z"/><path class="cls-1" d="M27.35 0h-1.87L23 2.13h1.94Z"/><path class="cls-1" d="M50.34 38v1.88l-2.13 2.5v-1.94Z"/><path class="cls-1" d="M24.78 0H22.9l-2.5 2.13h1.94Z"/><path class="cls-1" d="M50.34 40.58v1.88L48.21 45v-2Z"/><path class="cls-3" d="M48.09 5v26.32l-2.75 2.75v11l-4.22 4.22H0.9V8.11L4.79 4.22H30.9l3.57 -2.76h10.22Z"/></svg>