<svg id="Layer_1" data-name="Layer 1" xmlns="http://www.w3.org/2000/svg" viewBox="0 0 50 50"><defs><style>.cls-1{fill:#06c996;}.cls-2{fill:#8b8b8b;}</style></defs><path class="cls-1" d="M2.44,13a8.21,8.21,0,0,0,6.71,6c3.43.63,6-.92,8.55-3a11.18,11.18,0,0,1,13.58-.88c4.11,2.57,5.63,6.33,5.57,10.82a5.72,5.72,0,0,1-.45,2.16,29.53,29.53,0,0,1-3.55,5.67c-1.85,2.62-2.68,5.63-1.44,8.65A8.34,8.34,0,0,0,39.31,48a8.18,8.18,0,0,0,7.82-4.33A9.4,9.4,0,0,0,46,33.4c-1.7-2.13-3.36-4.22-3.74-7h0a13.27,13.27,0,0,1,3.6-10.22,7.66,7.66,0,0,0,1.66-8.93,8.25,8.25,0,0,0-8.28-5.38c-3.06.07-5.2,1.85-7.39,3.56a11.2,11.2,0,0,1-12.5.64c-1.79-1.12-3.26-2.67-5.26-3.51A8.28,8.28,0,0,0,5.3,3.76,8.18,8.18,0,0,0,2.44,13Z"/><path class="cls-2" d="M10.48,48.22a8.8,8.8,0,0,1,0-17.6h8.8v8.8A8.81,8.81,0,0,1,10.48,48.22Zm0-15.49a6.69,6.69,0,1,0,6.69,6.69V32.73Z"/></svg>