<svg xmlns="http://www.w3.org/2000/svg" xmlns:xlink="http://www.w3.org/1999/xlink" aria-hidden="true" role="img" class="iconify iconify--logos" width="95" height="84.609" preserveAspectRatio="xMidYMid meet" viewBox="0 0 676.872 602.839"><path fill="#00D8FF" d="M556.523 195.193a453.425 453.425 0 0 0 -21.787 -6.867c1.229 -5.024 2.361 -9.987 3.366 -14.862 16.493 -80.064 5.711 -144.565 -31.118 -165.802 -35.311 -20.359 -93.059 0.87 -151.381 51.627a452.737 452.737 0 0 0 -16.856 15.462 412.114 412.114 0 0 0 -11.213 -10.357C266.41 10.124 205.142 -12.75 168.353 8.548 133.074 28.971 122.627 89.606 137.476 165.485a452.06 452.06 0 0 0 5.003 22.421c-8.672 2.464 -17.041 5.087 -25.05 7.879C45.766 220.771 0 259.927 0 300.542c0 41.948 49.131 84.022 123.772 109.534a384.759 384.759 0 0 0 18.299 5.724 442.788 442.788 0 0 0 -5.315 24.161c-14.156 74.562 -3.101 133.764 32.083 154.057 36.34 20.957 97.332 -0.582 156.72 -52.497a384.884 384.884 0 0 0 14.124 -13.017 444.366 444.366 0 0 0 18.297 16.694c57.529 49.502 114.344 69.49 149.493 49.142 36.305 -21.017 48.105 -84.617 32.786 -161.994a383.427 383.427 0 0 0 -4.059 -18.09c4.283 -1.269 8.487 -2.575 12.586 -3.934 77.597 -25.708 128.085 -67.272 128.085 -109.78 0 -40.763 -47.244 -80.183 -120.348 -105.349Zm-16.829 187.684c-3.702 1.224 -7.498 2.406 -11.369 3.556 -8.567 -27.12 -20.126 -55.956 -34.275 -85.751 13.5 -29.084 24.616 -57.553 32.942 -84.495 6.925 2.004 13.643 4.117 20.121 6.346 62.637 21.565 100.843 53.444 100.843 78.009 0 26.165 -41.263 60.133 -108.262 82.335Zm-27.799 55.086c6.774 34.214 7.739 65.149 3.252 89.334 -4.03 21.731 -12.136 36.218 -22.162 42.022 -21.329 12.348 -66.947 -3.702 -116.144 -46.038a414.388 414.388 0 0 1 -17.02 -15.52c19.074 -20.859 38.135 -45.107 56.738 -72.039 32.723 -2.903 63.637 -7.652 91.671 -14.132a354.75 354.75 0 0 1 3.665 16.374ZM230.76 567.184c-20.84 7.358 -37.439 7.57 -47.474 1.785 -21.351 -12.313 -30.227 -59.85 -18.12 -123.614a414.909 414.909 0 0 1 4.942 -22.472c27.725 6.134 58.415 10.544 91.214 13.204 18.73 26.353 38.341 50.575 58.105 71.785a356.066 356.066 0 0 1 -12.895 11.877c-26.263 22.955 -52.579 39.243 -75.773 47.434ZM133.127 382.715c-33.005 -11.282 -60.263 -25.943 -78.945 -41.942 -16.79 -14.376 -25.264 -28.651 -25.264 -40.232 0 -24.648 36.744 -56.085 98.03 -77.452 7.438 -2.591 15.222 -5.037 23.299 -7.332 8.471 27.551 19.582 56.358 32.99 85.487 -13.582 29.56 -24.851 58.827 -33.405 86.703a356.198 356.198 0 0 1 -16.705 -5.233Zm32.728 -222.786c-12.72 -65.009 -4.273 -114.048 16.988 -126.356 22.643 -13.109 72.716 5.582 125.494 52.444a381.581 381.581 0 0 1 10.156 9.373c-19.666 21.118 -39.097 45.16 -57.661 71.357 -31.834 2.951 -62.307 7.689 -90.323 14.037a423.949 423.949 0 0 1 -4.653 -20.853Zm291.972 72.097a919.594 919.594 0 0 0 -20.584 -33.852c21.596 2.731 42.289 6.356 61.72 10.788 -5.833 18.699 -13.104 38.246 -21.663 58.288a1007.775 1007.775 0 0 0 -19.473 -35.224Zm-119.066 -115.97c13.336 14.45 26.694 30.581 39.832 48.084a851.483 851.483 0 0 0 -80 -0.016c13.151 -17.342 26.623 -33.452 40.168 -48.068ZM218.931 232.225a854.463 854.463 0 0 0 -19.108 35.002c-8.419 -19.97 -15.624 -39.608 -21.507 -58.571 19.312 -4.32 39.906 -7.853 61.365 -10.534a850.119 850.119 0 0 0 -20.75 34.1Zm21.366 172.793c-22.17 -2.475 -43.074 -5.825 -62.381 -10.029 5.976 -19.301 13.339 -39.356 21.94 -59.755a849.228 849.228 0 0 0 19.188 35.023c6.859 11.845 13.96 23.447 21.253 34.761Zm99.262 82.044c-13.707 -14.785 -27.376 -31.144 -40.726 -48.737 12.961 0.508 26.173 0.767 39.602 0.767 13.797 0 27.434 -0.309 40.858 -0.907 -13.18 17.911 -26.488 34.293 -39.734 48.878Zm138.013 -152.87c9.048 20.623 16.673 40.573 22.728 59.544 -19.624 4.479 -40.813 8.085 -63.139 10.764a1011.122 1011.122 0 0 0 20.779 -34.441 918.544 918.544 0 0 0 19.632 -35.866Zm-44.679 21.419a948.035 948.035 0 0 1 -32.471 52.391 870.944 870.944 0 0 1 -61.987 2.176c-21.065 0 -41.554 -0.656 -61.283 -1.935a820.183 820.183 0 0 1 -33.085 -52.473h0.003a812.801 812.801 0 0 1 -28.881 -54.538 820.384 820.384 0 0 1 28.793 -54.565l-0.003 0.003a812.558 812.558 0 0 1 32.82 -52.249c20.129 -1.523 40.771 -2.316 61.632 -2.316H338.436c20.957 0 41.625 0.801 61.749 2.335a870.83 870.83 0 0 1 32.614 52.074 947.856 947.856 0 0 1 29.18 54.308 871.134 871.134 0 0 1 -29.084 54.79Zm59.649 -322.9c22.665 13.072 31.48 65.786 17.239 134.914 -0.91 4.41 -1.93 8.902 -3.041 13.458 -28.085 -6.483 -58.578 -11.303 -90.505 -14.299 -18.598 -26.485 -37.87 -50.564 -57.217 -71.41a425.131 425.131 0 0 1 15.568 -14.278c49.972 -43.486 96.676 -60.657 117.955 -48.386ZM338.436 240.099c33.381 0 60.443 27.062 60.443 60.443s-27.062 60.443 -60.443 60.443 -60.443 -27.062 -60.443 -60.443 27.062 -60.443 60.443 -60.443Z"/></svg>