<?xml version="1.0" encoding="utf-8"?>
<!-- Generator: Adobe Illustrator 26.3.1, SVG Export Plug-In . SVG Version: 6.00 Build 0)  -->
<svg version="1.1" id="Layer_1" xmlns="http://www.w3.org/2000/svg" xmlns:xlink="http://www.w3.org/1999/xlink" x="0px" y="0px"
	 viewBox="0 0 196 206" style="enable-background:new 0 0 196 206;" xml:space="preserve">
<style type="text/css">
	.st0{fill:#FFFFFF;filter:url(#Adobe_OpacityMaskFilter);}
	.st1{mask:url(#path-1-outside-1_503_51_00000173132113026884660120000010557804150306415541_);fill:#FFFFFF;}
</style>
<defs>
	<filter id="Adobe_OpacityMaskFilter" filterUnits="userSpaceOnUse" x="14.1" y="15.9" width="167.5" height="167.5">
		<feColorMatrix  type="matrix" values="1 0 0 0 0  0 1 0 0 0  0 0 1 0 0  0 0 0 1 0"/>
	</filter>
</defs>
<mask maskUnits="userSpaceOnUse" x="14.1" y="15.9" width="167.5" height="167.5" id="path-1-outside-1_503_51_00000173132113026884660120000010557804150306415541_">
	<rect x="14" y="15" class="st0" width="168" height="169"/>
	<path d="M98,59.1c22.1,0,40.4,18.3,40.4,40.4c0,22.5-18.3,40.4-40.4,40.4c-22.5,0-40.4-17.9-40.4-40.4C57.6,77.4,75.5,59.1,98,59.1
		z M98,125.9c14.4,0,26-11.6,26-26.4c0-14.4-11.6-26-26-26c-14.8,0-26.4,11.6-26.4,26C71.6,114.3,83.6,125.9,98,125.9z M149.3,57.7
		c0,5.3-4.2,9.5-9.5,9.5c-5.3,0-9.5-4.2-9.5-9.5c0-5.3,4.2-9.5,9.5-9.5C145.1,48.2,149.3,52.4,149.3,57.7z M176,67.2
		c0.7,13,0.7,52,0,65c-0.7,12.7-3.5,23.6-12.7,33c-9.1,9.1-20.4,12-33,12.7c-13,0.7-52,0.7-65,0c-12.7-0.7-23.6-3.5-33-12.7
		c-9.1-9.5-12-20.4-12.7-33c-0.7-13-0.7-52,0-65c0.7-12.7,3.5-23.9,12.7-33c9.5-9.1,20.4-12,33-12.7c13-0.7,52-0.7,65,0
		c12.7,0.7,23.9,3.5,33,12.7C172.5,43.2,175.3,54.5,176,67.2z M159.2,145.9c4.2-10.2,3.2-34.8,3.2-46.4c0-11.2,1.1-35.9-3.2-46.4
		c-2.8-6.7-8.1-12.3-14.8-14.8c-10.5-4.2-35.2-3.2-46.4-3.2c-11.6,0-36.2-1.1-46.4,3.2c-7,2.8-12.3,8.1-15.1,14.8
		c-4.2,10.5-3.2,35.2-3.2,46.4c0,11.6-1.1,36.2,3.2,46.4c2.8,7,8.1,12.3,15.1,15.1c10.2,4.2,34.8,3.2,46.4,3.2
		c11.2,0,35.9,1.1,46.4-3.2C151.1,158.2,156.7,152.9,159.2,145.9z"/>
</mask>
<path class="st1" d="M176,67.2l5-0.3l0,0L176,67.2z M176,132.2l5,0.3l0,0L176,132.2z M163.4,165.2l3.5,3.5l0,0l0,0L163.4,165.2z
	 M130.3,177.9l0.3,5h0L130.3,177.9z M65.3,177.9l-0.3,5h0L65.3,177.9z M32.3,165.2l-3.6,3.5l0.1,0.1l0.1,0.1L32.3,165.2z
	 M19.6,132.2l-5,0.3l0,0L19.6,132.2z M19.6,67.2l-5-0.3l0,0L19.6,67.2z M32.3,34.1l-3.5-3.6l0,0l0,0L32.3,34.1z M65.3,21.5l-0.3-5
	l0,0L65.3,21.5z M130.3,21.5l0.3-5l0,0L130.3,21.5z M159.2,145.9l-4.6-1.9l-0.1,0.1l0,0.1L159.2,145.9z M159.2,53.1l4.6-1.9l0,0l0,0
	L159.2,53.1z M144.4,38.3l-1.9,4.6l0.1,0l0.1,0L144.4,38.3z M51.6,38.3l1.9,4.6l0,0l0,0L51.6,38.3z M36.5,53.1l-4.6-1.9l0,0l0,0
	L36.5,53.1z M36.5,145.9l4.6-1.9l0,0l0,0L36.5,145.9z M51.6,161l1.9-4.6l0,0l0,0L51.6,161z M144.4,161l1.9,4.6l0,0l0,0L144.4,161z
	 M98,64.1c19.4,0,35.4,16,35.4,35.4h10c0-24.9-20.5-45.4-45.4-45.4V64.1z M133.4,99.5c0,19.7-16,35.4-35.4,35.4v10
	c24.9,0,45.4-20.1,45.4-45.4H133.4z M98,134.9c-19.7,0-35.4-15.7-35.4-35.4h-10c0,25.3,20.2,45.4,45.4,45.4V134.9z M62.6,99.5
	c0-19.4,15.7-35.4,35.4-35.4v-10c-25.3,0-45.4,20.5-45.4,45.4H62.6z M98,130.9c17.2,0,31-13.9,31-31.4h-10c0,12-9.4,21.4-21,21.4
	V130.9z M129,99.5c0-17.2-13.8-31-31-31v10c11.7,0,21,9.4,21,21H129z M98,68.5c-17.5,0-31.4,13.8-31.4,31h10c0-11.6,9.3-21,21.4-21
	V68.5z M66.6,99.5c0,17.6,14.2,31.4,31.4,31.4v-10c-11.7,0-21.4-9.4-21.4-21.4H66.6z M143,57.7c0,1.8-1.4,3.2-3.2,3.2V68
	c5.7,0,10.3-4.6,10.3-10.3H143z M139.8,60.9c-1.8,0-3.2-1.4-3.2-3.2h-7.1c0,5.7,4.6,10.3,10.3,10.3V60.9z M136.6,57.7
	c0-1.8,1.4-3.2,3.2-3.2v-7.1c-5.7,0-10.3,4.6-10.3,10.3H136.6z M139.8,54.5c1.8,0,3.2,1.4,3.2,3.2h7.1c0-5.7-4.6-10.3-10.3-10.3
	V54.5z M171.1,67.4c0.7,12.8,0.7,51.7,0,64.5l10,0.5c0.7-13.2,0.7-52.4,0-65.6L171.1,67.4z M171.1,131.9c-0.7,12-3.3,21.6-11.3,29.9
	l7.2,6.9c10.3-10.7,13.3-23,14-36.2L171.1,131.9z M159.9,161.7c-7.9,7.9-17.7,10.5-29.8,11.2l0.6,10c13.2-0.7,25.9-3.7,36.3-14.1
	L159.9,161.7z M130.1,172.9c-12.8,0.7-51.7,0.7-64.5,0l-0.5,10c13.2,0.7,52.4,0.7,65.6,0L130.1,172.9z M65.6,172.9
	c-12-0.7-21.6-3.3-29.9-11.3l-6.9,7.2c10.7,10.3,23,13.3,36.2,14L65.6,172.9z M35.9,161.8c-8-8.3-10.6-17.8-11.3-29.9l-10,0.6
	c0.7,13.3,3.8,25.5,14,36.2L35.9,161.8z M24.6,131.9c-0.7-12.8-0.7-51.7,0-64.5l-10-0.5c-0.7,13.2-0.7,52.4,0,65.6L24.6,131.9z
	 M24.6,67.4c0.7-12.1,3.3-21.9,11.2-29.8l-7.1-7.1C18.3,41,15.3,53.7,14.6,66.9L24.6,67.4z M35.7,37.7c8.3-8,17.8-10.6,29.9-11.3
	l-0.6-10c-13.3,0.7-25.5,3.8-36.2,14L35.7,37.7z M65.6,26.4c12.8-0.7,51.7-0.7,64.5,0l0.5-10c-13.2-0.7-52.4-0.7-65.6,0L65.6,26.4z
	 M130.1,26.4c12.1,0.7,21.9,3.3,29.8,11.2l7.1-7.1c-10.4-10.4-23.1-13.4-36.3-14.1L130.1,26.4z M159.9,37.6
	c7.9,7.9,10.5,17.7,11.2,29.8l10-0.6c-0.7-13.2-3.7-25.9-14.1-36.3L159.9,37.6z M163.8,147.8c2.5-6.1,3.3-15.7,3.5-24.4
	c0.3-9,0-18.3,0-23.9h-10c0,6,0.3,14.8,0,23.6c-0.3,9-1.1,16.8-2.8,20.9L163.8,147.8z M167.3,99.5c0-5.4,0.3-14.7,0-23.6
	c-0.3-8.8-1-18.4-3.5-24.6l-9.3,3.7c1.7,4.3,2.5,12.3,2.8,21.2c0.3,8.8,0,17.5,0,23.3H167.3z M163.8,51.2
	c-3.3-7.7-9.5-14.5-17.6-17.5l-3.5,9.4c5.2,1.9,9.5,6.4,11.9,12L163.8,51.2z M146.3,33.7c-6.2-2.5-15.9-3.3-24.6-3.5
	c-9-0.3-18.2,0-23.6,0v10c5.8,0,14.5-0.3,23.3,0c9,0.3,16.9,1.1,21.2,2.8L146.3,33.7z M98,30.2c-5.6,0-14.9-0.3-23.9,0
	c-8.8,0.3-18.4,1-24.4,3.5l3.8,9.2c4.1-1.7,11.9-2.5,20.9-2.8c8.8-0.3,17.6,0,23.6,0V30.2z M49.7,33.7c-8.3,3.3-14.5,9.6-17.9,17.5
	l9.2,3.9c2.3-5.4,6.6-9.7,12.4-12.1L49.7,33.7z M31.8,51.2c-2.5,6.2-3.3,15.9-3.5,24.6c-0.3,9,0,18.2,0,23.6h10
	c0-5.8-0.3-14.5,0-23.3c0.3-9,1.1-16.9,2.8-21.2L31.8,51.2z M28.3,99.5c0,5.6-0.3,14.9,0,23.9c0.3,8.8,1,18.4,3.5,24.4l9.2-3.8
	c-1.7-4.1-2.5-11.9-2.8-20.9c-0.3-8.8,0-17.6,0-23.6H28.3z M31.8,147.8c3.3,8.3,9.6,14.6,17.9,17.9l3.7-9.3
	c-5.8-2.3-10-6.6-12.3-12.3L31.8,147.8z M49.7,165.6c6.1,2.5,15.7,3.3,24.4,3.5c9,0.3,18.3,0,23.9,0v-10c-6,0-14.8,0.3-23.6,0
	c-9-0.3-16.8-1.1-20.9-2.8L49.7,165.6z M98,169.2c5.4,0,14.7,0.3,23.6,0c8.8-0.3,18.4-1,24.6-3.5l-3.7-9.3
	c-4.3,1.7-12.3,2.5-21.2,2.8c-8.8,0.3-17.5,0-23.3,0V169.2z M146.3,165.6c7.8-3.3,14.5-9.5,17.5-18.1l-9.4-3.3
	c-1.9,5.5-6.4,9.8-12,12.2L146.3,165.6z"/>
</svg>
