<svg width="227" height="66" viewBox="0 0 227 66" fill="none" xmlns="http://www.w3.org/2000/svg">
<g id="Group 12">
<g id="surface1">
<path id="Vector" d="M81.8429 43.8001C83.6715 43.8371 85.4762 43.3791 87.0669 42.4743C88.6576 41.5696 89.9754 40.2516 90.8813 38.6591L85.6616 35.6697C85.3092 36.3846 84.7553 36.9802 84.0685 37.3827C83.3817 37.7853 82.5922 37.9771 81.7977 37.9344C81.1983 37.9566 80.6007 37.8547 80.0424 37.6349C79.4841 37.4151 78.977 37.0823 78.5529 36.6572C78.1287 36.2321 77.7966 35.7238 77.5773 35.1643C77.3581 34.6047 77.2563 34.0057 77.2785 33.405C77.2563 32.8042 77.3581 32.2053 77.5773 31.6457C77.7966 31.0861 78.1287 30.5778 78.5529 30.1527C78.977 29.7276 79.4841 29.3948 80.0424 29.175C80.6007 28.9552 81.1983 28.8533 81.7977 28.8755C82.5907 28.8415 83.3767 29.037 84.0619 29.4385C84.747 29.8401 85.3024 30.4309 85.6616 31.1402L90.8361 27.8564C89.6544 25.8773 87.8571 24.3418 85.7203 23.4857C83.5835 22.6296 81.2253 22.5003 79.0081 23.1176C76.7909 23.7349 74.8371 25.0647 73.447 26.9027C72.0568 28.7407 71.3072 30.9853 71.3132 33.2917C71.2885 34.6823 71.5443 36.0636 72.0653 37.3527C72.5863 38.6418 73.3618 39.8122 74.3451 40.7935C75.3285 41.7749 76.4995 42.5471 77.7879 43.0637C79.0763 43.5803 80.4556 43.8308 81.8429 43.8001Z" fill="#282829"/>
<path id="Vector_2" d="M103.061 22.7602C101.99 22.6887 100.917 22.8731 99.931 23.2984C98.945 23.7236 98.0738 24.3774 97.3892 25.2061V15.3545H91.4238V43.2334H97.3892V32.3626C97.3892 29.5317 98.9031 28.2635 101.072 28.2635C101.549 28.231 102.028 28.3037 102.474 28.4763C102.92 28.6489 103.323 28.9172 103.655 29.2626C103.986 29.6079 104.238 30.0218 104.394 30.4752C104.549 30.9285 104.603 31.4105 104.552 31.8871V43.2107H110.495V31.0265C110.495 25.6364 107.083 22.7602 103.061 22.7602Z" fill="#282829"/>
<path id="Vector_3" d="M122.154 43.7992C124.231 43.7903 126.259 43.1645 127.982 42.0009C129.704 40.8373 131.044 39.1881 131.831 37.2617C132.619 35.3353 132.819 33.2182 132.407 31.1778C131.995 29.1373 130.988 27.2652 129.515 25.7978C128.041 24.3305 126.167 23.3338 124.128 22.9336C122.09 22.5335 119.979 22.7479 118.062 23.5498C116.145 24.3516 114.508 25.7049 113.358 27.4387C112.209 29.1725 111.597 31.209 111.602 33.2909C111.593 34.6791 111.86 36.0553 112.388 37.3388C112.916 38.6223 113.694 39.7874 114.676 40.7659C115.659 41.7445 116.826 42.5167 118.11 43.0376C119.394 43.5584 120.769 43.8173 122.154 43.7992ZM122.154 37.9789C121.547 37.9792 120.946 37.857 120.387 37.6196C119.829 37.3821 119.323 37.0342 118.901 36.5967C118.48 36.1591 118.15 35.6409 117.932 35.0729C117.715 34.505 117.614 33.8989 117.635 33.2909C117.635 32.0896 118.111 30.9375 118.959 30.0881C119.806 29.2386 120.956 28.7614 122.154 28.7614C123.353 28.7614 124.502 29.2386 125.35 30.0881C126.197 30.9375 126.673 32.0896 126.673 33.2909C126.695 33.8989 126.593 34.505 126.376 35.0729C126.158 35.6409 125.829 36.1591 125.407 36.5967C124.985 37.0342 124.48 37.3821 123.921 37.6196C123.362 37.857 122.761 37.9792 122.154 37.9789Z" fill="#282829"/>
<path id="Vector_4" d="M145.948 22.7602C144.853 22.7118 143.761 22.9059 142.75 23.3286C141.738 23.7514 140.832 24.3924 140.096 25.2061V23.3264H134.062V51.2053H140.096V41.3763C140.843 42.1925 141.762 42.8329 142.785 43.2519C143.809 43.6708 144.912 43.8578 146.016 43.7996C147.325 43.7329 148.608 43.408 149.792 42.8435C150.976 42.279 152.037 41.4859 152.914 40.5098C153.791 39.5336 154.468 38.3935 154.905 37.1548C155.342 35.9161 155.531 34.6032 155.461 33.2912C155.531 31.9726 155.34 30.6532 154.899 29.4089C154.458 28.1646 153.776 27.0201 152.891 26.0412C152.007 25.0624 150.938 24.2685 149.747 23.7054C148.555 23.1423 147.264 22.8211 145.948 22.7602ZM144.75 38.1377C144.118 38.1583 143.488 38.0456 142.902 37.8069C142.316 37.5682 141.787 37.2088 141.348 36.7519C140.909 36.295 140.571 35.7509 140.355 35.1548C140.139 34.5587 140.051 33.9238 140.096 33.2912C140.051 32.6406 140.14 31.9876 140.357 31.373C140.575 30.7583 140.916 30.1951 141.36 29.7183C141.804 29.2415 142.341 28.8613 142.938 28.6013C143.535 28.3414 144.179 28.2073 144.83 28.2073C145.48 28.2073 146.124 28.3414 146.721 28.6013C147.318 28.8613 147.855 29.2415 148.299 29.7183C148.743 30.1951 149.084 30.7583 149.302 31.373C149.519 31.9876 149.608 32.6406 149.563 33.2912C149.61 33.9377 149.518 34.5868 149.293 35.1945C149.068 35.8023 148.715 36.3545 148.259 36.8139C147.803 37.2734 147.253 37.6293 146.648 37.8577C146.043 38.0861 145.396 38.1816 144.75 38.1377Z" fill="#282829"/>
<path id="Vector_5" d="M166.375 43.8007C168.203 43.8377 170.008 43.3797 171.599 42.4749C173.189 41.5702 174.507 40.2522 175.413 38.6597L170.148 35.6703C169.8 36.3834 169.25 36.9781 168.567 37.3807C167.884 37.7834 167.098 37.9761 166.307 37.935C165.708 37.9539 165.112 37.8496 164.555 37.6287C163.999 37.4077 163.493 37.0747 163.069 36.6503C162.646 36.2259 162.314 35.719 162.093 35.161C161.873 34.6029 161.769 34.0055 161.788 33.4055C161.769 32.8056 161.873 32.2082 162.093 31.6501C162.314 31.0921 162.646 30.5852 163.069 30.1608C163.493 29.7363 163.999 29.4034 164.555 29.1824C165.112 28.9615 165.708 28.8572 166.307 28.8761C167.097 28.8408 167.881 29.036 168.562 29.438C169.244 29.8399 169.795 30.4314 170.148 31.1408L175.368 28.1061C174.185 26.1754 172.412 24.6786 170.312 23.8382C168.213 22.9977 165.899 22.8583 163.714 23.4407C161.529 24.0231 159.59 25.2962 158.185 27.071C156.779 28.8458 155.983 31.0275 155.913 33.2923C155.888 34.6771 156.142 36.0527 156.659 37.3372C157.176 38.6217 157.945 39.7889 158.921 40.7693C159.897 41.7497 161.06 42.5233 162.341 43.0441C163.621 43.5648 164.993 43.8222 166.375 43.8007Z" fill="#282829"/>
<path id="Vector_6" d="M190.395 23.3267V25.2064C189.646 24.3831 188.725 23.7366 187.698 23.3136C186.67 22.8906 185.561 22.7017 184.452 22.7605C183.138 22.8243 181.849 23.1476 180.66 23.712C179.471 24.2764 178.405 25.0707 177.523 26.0493C176.641 27.0278 175.961 28.1714 175.521 29.4142C175.082 30.6571 174.891 31.9747 174.961 33.2915C174.891 34.6071 175.082 35.9236 175.522 37.1651C175.962 38.4067 176.642 39.5487 177.524 40.5255C178.406 41.5022 179.473 42.2944 180.662 42.8564C181.851 43.4184 183.139 43.739 184.452 43.7999C185.559 43.8568 186.665 43.6692 187.692 43.2505C188.719 42.8317 189.641 42.192 190.395 41.3766V43.2337H196.36V23.3267H190.395ZM185.649 38.138C185.011 38.1685 184.374 38.063 183.78 37.8287C183.186 37.5943 182.648 37.2364 182.201 36.7784C181.755 36.3205 181.411 35.7729 181.191 35.1719C180.971 34.5709 180.881 33.93 180.927 33.2915C180.882 32.6409 180.971 31.9879 181.189 31.3733C181.406 30.7586 181.748 30.1954 182.192 29.7186C182.635 29.2418 183.173 28.8616 183.769 28.6016C184.366 28.3417 185.01 28.2076 185.661 28.2076C186.311 28.2076 186.955 28.3417 187.552 28.6016C188.149 28.8616 188.686 29.2418 189.13 29.7186C189.574 30.1954 189.915 30.7586 190.133 31.3733C190.35 31.9879 190.439 32.6409 190.395 33.2915C190.44 33.932 190.35 34.5749 190.129 35.1776C189.907 35.7803 189.561 36.329 189.112 36.7873C188.664 37.2456 188.123 37.603 187.526 37.8359C186.929 38.0688 186.289 38.1718 185.649 38.138Z" fill="#282829"/>
<path id="Vector_7" d="M204.382 29.1479C204.382 28.4232 205.015 28.0382 206.054 28.0382C206.62 28.0355 207.174 28.1993 207.648 28.5093C208.122 28.8193 208.495 29.2618 208.72 29.782L213.805 27.019C213.006 25.6834 211.868 24.5849 210.506 23.8366C209.143 23.0883 207.607 22.7171 206.054 22.7613C201.919 22.7613 198.258 25.0261 198.258 29.3064C198.258 36.1006 208.02 35.0362 208.02 37.233C208.02 38.0257 207.319 38.456 205.896 38.456C205.159 38.5173 204.423 38.3269 203.807 37.9157C203.192 37.5045 202.734 36.8967 202.507 36.1912L197.332 39.1354C198.127 40.6897 199.366 41.9707 200.892 42.8141C202.418 43.6574 204.16 44.0247 205.896 43.8687C210.167 43.8687 214.166 41.921 214.166 37.3462C214.166 29.8953 204.382 31.4126 204.382 29.1479Z" fill="#282829"/>
<path id="Vector_8" d="M227 29.0569V23.3271H222.888V17.7559L216.922 19.545V23.3271H213.759V29.0569H216.922V36.2361C216.922 41.8073 219.182 44.1627 226.977 43.3474V37.8214C224.356 37.9799 222.865 37.8214 222.865 36.1229V29.0569H227Z" fill="#282829"/>
<g id="Clip path group">
<mask id="mask0_165_520" style="mask-type:luminance" maskUnits="userSpaceOnUse" x="20" y="27" width="10" height="12">
<g id="clip-path">
<path id="Vector_9" d="M29.4876 27.1768H20.4492V38.5004H29.4876V27.1768Z" fill="white"/>
</g>
</mask>
<g mask="url(#mask0_165_520)">
<g id="Group">
<g id="Clip path group_2">
<mask id="mask1_165_520" style="mask-type:luminance" maskUnits="userSpaceOnUse" x="17" y="28" width="12" height="11">
<g id="clip-path-2">
<path id="Vector_10" d="M21.5652 28.6871L17.8848 34.1211L24.6712 38.7384L28.3516 33.3044L21.5652 28.6871Z" fill="white"/>
</g>
</mask>
<g mask="url(#mask1_165_520)">
<g id="Group_2">
<g id="Clip path group_3">
<mask id="mask2_165_520" style="mask-type:luminance" maskUnits="userSpaceOnUse" x="17" y="28" width="12" height="11">
<g id="clip-path-2_2">
<path id="Vector_11" d="M21.5652 28.6871L17.8848 34.1211L24.6712 38.7384L28.3516 33.3044L21.5652 28.6871Z" fill="white"/>
</g>
</mask>
<g mask="url(#mask2_165_520)">
<g id="Group_3">
<path id="Vector_12" d="M21.308 29.4412L21.082 35.7825C21.082 36.0316 21.082 36.2354 21.2402 36.3034C21.3243 36.358 21.4224 36.387 21.5227 36.387C21.6229 36.387 21.721 36.358 21.8051 36.3034L27.6801 33.9707C28.132 33.7216 28.1546 33.2686 27.6801 32.9516L22.2118 29.1468C21.7599 28.8298 21.3532 29.0109 21.308 29.4412Z" fill="#282829"/>
</g>
</g>
</g>
</g>
</g>
</g>
</g>
</g>
</g>
<g id="Clip path group_4">
<mask id="mask3_165_520" style="mask-type:luminance" maskUnits="userSpaceOnUse" x="0" y="0" width="66" height="66">
<g id="clip-path-4">
<path id="Vector_13" d="M65.6415 0H0V65.7452H65.6415V0Z" fill="white"/>
</g>
</mask>
<g mask="url(#mask3_165_520)">
<g id="Group_4">
<path id="Vector_14" d="M61.3257 66.2435H4.27065C3.13801 66.2435 2.05175 65.7925 1.25085 64.9898C0.449943 64.1871 0 63.0983 0 61.9631V4.75593C0 3.62071 0.449943 2.53199 1.25085 1.72927C2.05175 0.92655 3.13801 0.475586 4.27065 0.475586H61.3257C62.4465 0.49342 63.5155 0.952245 64.3018 1.75304C65.0881 2.55384 65.5287 3.63239 65.5286 4.75593V61.9631C65.5287 63.0867 65.0881 64.1652 64.3018 64.966C63.5155 65.7668 62.4465 66.2256 61.3257 66.2435Z" fill="#FBD458"/>
</g>
</g>
</g>
<g id="Clip path group_5">
<mask id="mask4_165_520" style="mask-type:luminance" maskUnits="userSpaceOnUse" x="18" y="29" width="12" height="12">
<g id="clip-path-5">
<path id="Vector_15" d="M29.4875 29.4414H18.1895V40.7651H29.4875V29.4414Z" fill="white"/>
</g>
</mask>
<g mask="url(#mask4_165_520)">
<g id="Group_5">
<g id="Clip path group_6">
<mask id="mask5_165_520" style="mask-type:luminance" maskUnits="userSpaceOnUse" x="18" y="29" width="12" height="13">
<g id="clip-path-6">
<path id="Vector_16" d="M21.2873 29.9984L18.2402 39.3574L26.0325 41.9059L29.0796 32.5469L21.2873 29.9984Z" fill="white"/>
</g>
</mask>
<g mask="url(#mask5_165_520)">
<g id="Group_6">
<g id="Clip path group_7">
<mask id="mask6_165_520" style="mask-type:luminance" maskUnits="userSpaceOnUse" x="16" y="29" width="14" height="15">
<g id="clip-path-7">
<path id="Vector_17" d="M19.7182 29.377L16.1787 40.3213L25.529 43.3591L29.0686 32.4148L19.7182 29.377Z" fill="white"/>
</g>
</mask>
<g mask="url(#mask6_165_520)">
<g id="Group_7">
<path id="Vector_18" d="M17.5117 40.4022L26.5501 38.3866C26.9343 38.3866 27.1602 38.1601 27.228 37.9563C27.2958 37.7525 27.228 37.4807 26.9343 37.209L20.8333 30.0977C20.7418 29.97 20.6144 29.8725 20.4674 29.8176C20.3205 29.7626 20.1605 29.7527 20.0079 29.7891C19.8553 29.8255 19.7169 29.9066 19.6104 30.0221C19.5039 30.1375 19.4341 30.2821 19.4098 30.4374L16.5401 39.2699C16.4717 39.4127 16.4463 39.5724 16.467 39.7295C16.4877 39.8865 16.5536 40.0342 16.6567 40.1543C16.7597 40.2744 16.8955 40.3618 17.0474 40.4059C17.1992 40.4499 17.3606 40.4486 17.5117 40.4022Z" fill="#282829"/>
</g>
</g>
</g>
</g>
</g>
</g>
</g>
</g>
</g>
<g id="Group_8">
<g id="Clip path group_8">
<mask id="mask7_165_520" style="mask-type:luminance" maskUnits="userSpaceOnUse" x="27" y="36" width="14" height="10">
<g id="clip-path-8">
<path id="Vector_19" d="M40.7861 36.2354H27.2285V45.2943H40.7861V36.2354Z" fill="white"/>
</g>
</mask>
<g mask="url(#mask7_165_520)">
<g id="Group_9">
<g id="surface13">
<g id="Clip path group_9">
<mask id="mask8_165_520" style="mask-type:luminance" maskUnits="userSpaceOnUse" x="29" y="37" width="11" height="7">
<g id="clip-path-9">
<path id="Vector_20" d="M39.8596 37.8662H29.375V43.6413H39.8596V37.8662Z" fill="white"/>
</g>
</mask>
<g mask="url(#mask8_165_520)">
<g id="Group_10">
<g id="Clip path group_10">
<mask id="mask9_165_520" style="mask-type:luminance" maskUnits="userSpaceOnUse" x="29" y="38" width="11" height="6">
<g id="clip-path-10">
<path id="Vector_21" d="M39.3285 38.1638L29.4795 38.4033L29.599 43.339L39.448 43.0995L39.3285 38.1638Z" fill="white"/>
</g>
</mask>
<g mask="url(#mask9_165_520)">
<g id="Group_11">
<g id="Clip path group_11">
<mask id="mask10_165_520" style="mask-type:luminance" maskUnits="userSpaceOnUse" x="29" y="38" width="11" height="6">
<g id="clip-path-10_2">
<path id="Vector_22" d="M39.3285 38.1638L29.4795 38.4033L29.599 43.339L39.448 43.0995L39.3285 38.1638Z" fill="white"/>
</g>
</mask>
<g mask="url(#mask10_165_520)">
<g id="Group_12">
<path id="Vector_23" d="M29.6006 43.3463V38.4092L39.4977 40.6739L29.6006 43.3463Z" fill="#282829"/>
</g>
</g>
</g>
</g>
</g>
</g>
</g>
</g>
</g>
</g>
</g>
</g>
</g>
</g>
<g id="Group_13">
<g id="Clip path group_12">
<mask id="mask11_165_520" style="mask-type:luminance" maskUnits="userSpaceOnUse" x="24" y="22" width="15" height="10">
<g id="clip-path-12">
<path id="Vector_24" d="M38.5264 22.6475H24.9688V31.7064H38.5264V22.6475Z" fill="white"/>
</g>
</mask>
<g mask="url(#mask11_165_520)">
<g id="Group_14">
<g id="surface16">
<g id="Clip path group_13">
<mask id="mask12_165_520" style="mask-type:luminance" maskUnits="userSpaceOnUse" x="25" y="24" width="12" height="8">
<g id="clip-path-13">
<path id="Vector_25" d="M36.2672 24.9111H25.7148V31.5468H36.2672V24.9111Z" fill="white"/>
</g>
</mask>
<g mask="url(#mask12_165_520)">
<g id="Group_15">
<g id="Clip path group_14">
<mask id="mask13_165_520" style="mask-type:luminance" maskUnits="userSpaceOnUse" x="26" y="23" width="12" height="9">
<g id="clip-path-14">
<path id="Vector_26" d="M35.1406 23.1435L26.0732 27.0049L27.9995 31.5489L37.0669 27.6875L35.1406 23.1435Z" fill="white"/>
</g>
</mask>
<g mask="url(#mask13_165_520)">
<g id="Group_16">
<g id="Clip path group_15">
<mask id="mask14_165_520" style="mask-type:luminance" maskUnits="userSpaceOnUse" x="26" y="23" width="12" height="9">
<g id="clip-path-14_2">
<path id="Vector_27" d="M35.1406 23.1435L26.0732 27.0049L27.9995 31.5489L37.0669 27.6875L35.1406 23.1435Z" fill="white"/>
</g>
</mask>
<g mask="url(#mask14_165_520)">
<g id="Group_17">
<path id="Vector_28" d="M27.9742 31.5464L26.0762 27.017L36.0862 25.4316L27.9742 31.5464Z" fill="#282829"/>
</g>
</g>
</g>
</g>
</g>
</g>
</g>
</g>
</g>
</g>
</g>
</g>
</g>
</g>
<g id="Group_18">
<g id="Clip path group_16">
<mask id="mask15_165_520" style="mask-type:luminance" maskUnits="userSpaceOnUse" x="22" y="20" width="44" height="30">
<g id="clip-path-16">
<path id="Vector_29" d="M65.6415 20.3828H22.709V49.8244H65.6415V20.3828Z" fill="white"/>
</g>
</mask>
<g mask="url(#mask15_165_520)">
<g id="Group_19">
<g id="surface19">
<g id="Clip path group_17">
<mask id="mask16_165_520" style="mask-type:luminance" maskUnits="userSpaceOnUse" x="24" y="33" width="42" height="17">
<g id="clip-path-17">
<path id="Vector_30" d="M65.5965 33.9717H24.9688V49.4398H65.5965V33.9717Z" fill="white"/>
</g>
</mask>
<g mask="url(#mask16_165_520)">
<g id="Group_20">
<g id="Clip path group_18">
<mask id="mask17_165_520" style="mask-type:luminance" maskUnits="userSpaceOnUse" x="25" y="34" width="41" height="16">
<g id="clip-path-18">
<path id="Vector_31" d="M64.6735 34.9828L25.3291 36.1738L25.7254 49.3259L65.0698 48.1349L64.6735 34.9828Z" fill="white"/>
</g>
</mask>
<g mask="url(#mask17_165_520)">
<g id="Group_21">
<g id="Clip path group_19">
<mask id="mask18_165_520" style="mask-type:luminance" maskUnits="userSpaceOnUse" x="24" y="21" width="42" height="29">
<g id="clip-path-19">
<path id="Vector_32" d="M64.2967 21.8481L24.9521 23.0322L25.7396 49.3139L65.0842 48.1298L64.2967 21.8481Z" fill="white"/>
</g>
</mask>
<g mask="url(#mask18_165_520)">
<g id="Group_22">
<path id="Vector_33" d="M39.7923 24.4154C35.8154 24.891 31.8385 25.4118 27.8616 26.0007C27.2741 26.0007 26.5962 26.1592 26.3025 26.7254C26.0652 27.5641 25.9735 28.4374 26.0313 29.3072C25.8731 31.3455 25.7828 33.3611 25.715 35.3993C25.5794 39.9288 25.5794 44.4583 25.715 48.9877C25.7148 49.068 25.745 49.1454 25.7995 49.2043C25.854 49.2631 25.9288 49.2991 26.0087 49.3048C26.0834 49.3202 26.161 49.308 26.2275 49.2706C26.2939 49.2331 26.3446 49.1729 26.3702 49.101C34.3918 49.101 42.3683 48.5801 50.3447 47.7195C52.3557 47.493 54.412 47.2665 56.423 46.9948L59.2023 46.6098C59.919 46.6103 60.6222 46.4146 61.236 46.0436C61.6869 45.5269 61.9498 44.8722 61.9816 44.1865C62.1624 43.1674 62.3658 42.1256 62.5239 41.1065C62.7951 39.2041 63.0888 37.3017 63.2922 35.3993C63.7893 31.0812 64.068 26.7178 64.1283 22.3092C64.1283 22.0827 63.9927 21.9695 63.7667 21.9921C55.9033 22.6489 47.8365 23.3962 39.7923 24.4154Z" fill="#FBD458"/>
</g>
</g>
</g>
</g>
</g>
</g>
</g>
</g>
</g>
</g>
</g>
</g>
</g>
</g>
<g id="Group_23">
<g id="Clip path group_20">
<mask id="mask19_165_520" style="mask-type:luminance" maskUnits="userSpaceOnUse" x="20" y="15" width="21" height="19">
<g id="clip-path-20">
<path id="Vector_34" d="M40.7857 15.8535H20.4492V33.9714H40.7857V15.8535Z" fill="white"/>
</g>
</mask>
<g mask="url(#mask19_165_520)">
<g id="Group_24">
<g id="surface22">
<g id="Clip path group_21">
<mask id="mask20_165_520" style="mask-type:luminance" maskUnits="userSpaceOnUse" x="20" y="20" width="19" height="13">
<g id="clip-path-21">
<path id="Vector_35" d="M38.5261 20.3828H20.4492V32.6124H38.5261V20.3828Z" fill="white"/>
</g>
</mask>
<g mask="url(#mask20_165_520)">
<g id="Group_25">
<g id="Clip path group_22">
<mask id="mask21_165_520" style="mask-type:luminance" maskUnits="userSpaceOnUse" x="20" y="18" width="20" height="15">
<g id="clip-path-22">
<path id="Vector_36" d="M35.9786 18.2065L20.8779 24.6309L24.0828 32.1983L39.1835 25.7739L35.9786 18.2065Z" fill="white"/>
</g>
</mask>
<g mask="url(#mask21_165_520)">
<g id="Group_26">
<g id="Clip path group_23">
<mask id="mask22_165_520" style="mask-type:luminance" maskUnits="userSpaceOnUse" x="20" y="18" width="20" height="15">
<g id="clip-path-22_2">
<path id="Vector_37" d="M35.9786 18.2065L20.8779 24.6309L24.0828 32.1983L39.1835 25.7739L35.9786 18.2065Z" fill="white"/>
</g>
</mask>
<g mask="url(#mask22_165_520)">
<g id="Group_27">
<path id="Vector_38" d="M24.0649 32.1825L20.8789 24.641L37.5774 21.9912L24.0649 32.1825Z" fill="white"/>
</g>
</g>
</g>
</g>
</g>
</g>
</g>
</g>
</g>
</g>
</g>
</g>
</g>
</g>
<g id="Group_28">
<g id="Clip path group_24">
<mask id="mask23_165_520" style="mask-type:luminance" maskUnits="userSpaceOnUse" x="18" y="13" width="21" height="24">
<g id="clip-path-24">
<path id="Vector_39" d="M38.5259 13.5889H18.1895V36.2362H38.5259V13.5889Z" fill="white"/>
</g>
</mask>
<g mask="url(#mask23_165_520)">
<g id="Group_29">
<g id="surface25">
<g id="Clip path group_25">
<mask id="mask24_165_520" style="mask-type:luminance" maskUnits="userSpaceOnUse" x="22" y="20" width="15" height="14">
<g id="clip-path-25">
<path id="Vector_40" d="M36.2666 20.3828H22.709V33.9712H36.2666V20.3828Z" fill="white"/>
</g>
</mask>
<g mask="url(#mask24_165_520)">
<g id="Group_30">
<g id="Clip path group_26">
<mask id="mask25_165_520" style="mask-type:luminance" maskUnits="userSpaceOnUse" x="18" y="16" width="19" height="18">
<g id="clip-path-26">
<path id="Vector_41" d="M29.0152 16.6736L18.7451 24.8701L25.8955 33.8702L36.1656 25.6737L29.0152 16.6736Z" fill="white"/>
</g>
</mask>
<g mask="url(#mask25_165_520)">
<g id="Group_31">
<g id="Clip path group_27">
<mask id="mask26_165_520" style="mask-type:luminance" maskUnits="userSpaceOnUse" x="18" y="16" width="19" height="18">
<g id="clip-path-26_2">
<path id="Vector_42" d="M29.0152 16.6736L18.7451 24.8701L25.8955 33.8702L36.1656 25.6737L29.0152 16.6736Z" fill="white"/>
</g>
</mask>
<g mask="url(#mask26_165_520)">
<g id="Group_32">
<g id="Clip path group_28">
<mask id="mask27_165_520" style="mask-type:luminance" maskUnits="userSpaceOnUse" x="18" y="16" width="19" height="18">
<g id="clip-path-28">
<path id="Vector_43" d="M28.7859 16.8699L18.7471 24.8848L25.9695 33.9721L36.0083 25.9573L28.7859 16.8699Z" fill="white"/>
</g>
</mask>
<g mask="url(#mask27_165_520)">
<g id="Group_33">
<path id="Vector_44" d="M34.7529 25.0254L24.8558 20.9035C24.7176 20.8148 24.5568 20.7676 24.3926 20.7676C24.2284 20.7676 24.0677 20.8148 23.9294 20.9035C23.726 21.0394 23.6582 21.3565 23.7712 21.8094L25.4207 32.5896C25.4292 32.7694 25.4897 32.9429 25.5948 33.089C25.6999 33.235 25.8451 33.3472 26.0127 33.412C26.1804 33.4768 26.3632 33.4914 26.5389 33.4539C26.7146 33.4165 26.8757 33.3286 27.0025 33.2011L35.0918 26.7466C35.6793 26.1804 35.5664 25.4104 34.7529 25.0254Z" fill="black"/>
</g>
</g>
</g>
</g>
</g>
</g>
</g>
</g>
</g>
</g>
</g>
</g>
</g>
</g>
</g>
</g>
</g>
<g id="Group_34">
<g id="Clip path group_29">
<mask id="mask28_165_520" style="mask-type:luminance" maskUnits="userSpaceOnUse" x="24" y="29" width="15" height="10">
<g id="clip-path-29">
<path id="Vector_45" d="M38.5264 29.4414H24.9688V38.5003H38.5264V29.4414Z" fill="white"/>
</g>
</mask>
<g mask="url(#mask28_165_520)">
<g id="Group_35">
<g id="surface28">
<g id="Clip path group_30">
<mask id="mask29_165_520" style="mask-type:luminance" maskUnits="userSpaceOnUse" x="25" y="31" width="13" height="6">
<g id="clip-path-30">
<path id="Vector_46" d="M37.7811 31.0264H25.7148V36.8014H37.7811V31.0264Z" fill="white"/>
</g>
</mask>
<g mask="url(#mask29_165_520)">
<g id="Group_36">
<g id="Clip path group_31">
<mask id="mask30_165_520" style="mask-type:luminance" maskUnits="userSpaceOnUse" x="25" y="31" width="13" height="6">
<g id="clip-path-31">
<path id="Vector_47" d="M37.4282 31.1073L25.9531 31.3984L26.0778 36.334L37.5529 36.0429L37.4282 31.1073Z" fill="white"/>
</g>
</mask>
<g mask="url(#mask30_165_520)">
<g id="Group_37">
<g id="Clip path group_32">
<mask id="mask31_165_520" style="mask-type:luminance" maskUnits="userSpaceOnUse" x="25" y="31" width="13" height="6">
<g id="clip-path-31_2">
<path id="Vector_48" d="M37.4282 31.1073L25.9531 31.3984L26.0778 36.334L37.5529 36.0429L37.4282 31.1073Z" fill="white"/>
</g>
</mask>
<g mask="url(#mask31_165_520)">
<g id="Group_38">
<path id="Vector_49" d="M26.0762 36.2358V31.3213L37.6002 33.586L26.0762 36.2358Z" fill="#FBD458"/>
</g>
</g>
</g>
</g>
</g>
</g>
</g>
</g>
</g>
</g>
</g>
</g>
</g>
</g>
<g id="Group_39">
<g id="Clip path group_33">
<mask id="mask32_165_520" style="mask-type:luminance" maskUnits="userSpaceOnUse" x="20" y="29" width="10" height="10">
<g id="clip-path-33">
<path id="Vector_50" d="M29.4876 29.4414H20.4492V38.5003H29.4876V29.4414Z" fill="white"/>
</g>
</mask>
<g mask="url(#mask32_165_520)">
<g id="Group_40">
<g id="surface31">
<g id="Clip path group_34">
<mask id="mask33_165_520" style="mask-type:luminance" maskUnits="userSpaceOnUse" x="21" y="29" width="7" height="8">
<g id="clip-path-34">
<path id="Vector_51" d="M27.2275 29.4639H21.5107V36.2354H27.2275V29.4639Z" fill="white"/>
</g>
</mask>
<g mask="url(#mask33_165_520)">
<g id="Group_41">
<g id="Clip path group_35">
<mask id="mask34_165_520" style="mask-type:luminance" maskUnits="userSpaceOnUse" x="21" y="29" width="7" height="7">
<g id="clip-path-35">
<path id="Vector_52" d="M22.8128 29.8836L21.7617 34.707L26.5742 35.7605L27.6253 30.937L22.8128 29.8836Z" fill="white"/>
</g>
</mask>
<g mask="url(#mask34_165_520)">
<g id="Group_42">
<g id="Clip path group_36">
<mask id="mask35_165_520" style="mask-type:luminance" maskUnits="userSpaceOnUse" x="21" y="29" width="7" height="7">
<g id="clip-path-35_2">
<path id="Vector_53" d="M22.8128 29.8836L21.7617 34.707L26.5742 35.7605L27.6253 30.937L22.8128 29.8836Z" fill="white"/>
</g>
</mask>
<g mask="url(#mask35_165_520)">
<g id="Group_43">
<g id="Clip path group_37">
<mask id="mask36_165_520" style="mask-type:luminance" maskUnits="userSpaceOnUse" x="21" y="29" width="7" height="7">
<g id="clip-path-37">
<path id="Vector_54" d="M22.8209 29.8667L21.6963 35.0449L26.0679 35.9987L27.1925 30.8204L22.8209 29.8667Z" fill="white"/>
</g>
</mask>
<g mask="url(#mask36_165_520)">
<g id="Group_44">
<path id="Vector_55" d="M26.0976 35.3056L25.2163 30.7761C25.2163 30.5723 25.1033 30.4817 25.0356 30.4591C24.9678 30.4364 24.8322 30.4591 24.7418 30.6855L21.9851 34.4224C21.7591 34.7394 21.8269 35.0565 22.1207 35.1244L25.6682 35.8944C25.9394 35.9624 26.1428 35.6906 26.0976 35.3056Z" fill="black"/>
</g>
</g>
</g>
</g>
</g>
</g>
</g>
</g>
</g>
</g>
</g>
</g>
</g>
</g>
</g>
</g>
</g>
<g id="Group_45">
<g id="Clip path group_38">
<mask id="mask37_165_520" style="mask-type:luminance" maskUnits="userSpaceOnUse" x="20" y="29" width="12" height="15">
<g id="clip-path-38">
<path id="Vector_56" d="M31.7472 29.4414H20.4492V43.0298H31.7472V29.4414Z" fill="white"/>
</g>
</mask>
<g mask="url(#mask37_165_520)">
<g id="Group_46">
<g id="surface34">
<g id="Clip path group_39">
<mask id="mask38_165_520" style="mask-type:luminance" maskUnits="userSpaceOnUse" x="22" y="31" width="10" height="10">
<g id="clip-path-39">
<path id="Vector_57" d="M31.4753 31.0264H22.708V40.7647H31.4753V31.0264Z" fill="white"/>
</g>
</mask>
<g mask="url(#mask38_165_520)">
<g id="Group_47">
<g id="Clip path group_40">
<mask id="mask39_165_520" style="mask-type:luminance" maskUnits="userSpaceOnUse" x="20" y="31" width="12" height="11">
<g id="clip-path-40">
<path id="Vector_58" d="M24.3407 31.1868L20.665 36.624L27.4555 41.2354L31.1312 35.7982L24.3407 31.1868Z" fill="white"/>
</g>
</mask>
<g mask="url(#mask39_165_520)">
<g id="Group_48">
<g id="Clip path group_41">
<mask id="mask40_165_520" style="mask-type:luminance" maskUnits="userSpaceOnUse" x="20" y="31" width="12" height="11">
<g id="clip-path-40_2">
<path id="Vector_59" d="M24.3407 31.1868L20.665 36.624L27.4555 41.2354L31.1312 35.7982L24.3407 31.1868Z" fill="white"/>
</g>
</mask>
<g mask="url(#mask40_165_520)">
<g id="Group_49">
<g id="Clip path group_42">
<mask id="mask41_165_520" style="mask-type:luminance" maskUnits="userSpaceOnUse" x="20" y="30" width="12" height="12">
<g id="clip-path-42">
<path id="Vector_60" d="M23.9295 30.7938L20.2012 36.3047L27.4576 41.2362L31.1859 35.7253L23.9295 30.7938Z" fill="white"/>
</g>
</mask>
<g mask="url(#mask41_165_520)">
<g id="Group_50">
<path id="Vector_61" d="M23.635 31.7065V38.2063C23.6124 38.3103 23.6195 38.4186 23.6555 38.5187C23.6914 38.6189 23.7548 38.7068 23.8384 38.7725C23.9284 38.822 24.0295 38.848 24.1322 38.848C24.2349 38.848 24.3359 38.822 24.4259 38.7725L30.4816 36.236C30.9562 35.9869 30.9562 35.5113 30.4816 35.1942L24.6293 31.2083C24.1322 30.9591 23.7028 31.1177 23.635 31.7065Z" fill="black"/>
</g>
</g>
</g>
</g>
</g>
</g>
</g>
</g>
</g>
</g>
</g>
</g>
</g>
</g>
</g>
</g>
</g>
<g id="Clip path group_43">
<mask id="mask42_165_520" style="mask-type:luminance" maskUnits="userSpaceOnUse" x="24" y="33" width="15" height="11">
<g id="clip-path-43">
<path id="Vector_62" d="M38.5264 33.9707H24.9688V43.0296H38.5264V33.9707Z" fill="white"/>
</g>
</mask>
<g mask="url(#mask42_165_520)">
<g id="Group_51">
<g id="Clip path group_44">
<mask id="mask43_165_520" style="mask-type:luminance" maskUnits="userSpaceOnUse" x="26" y="35" width="11" height="6">
<g id="clip-path-44">
<path id="Vector_63" d="M36.543 35.687L26.7168 35.9346L26.8406 40.8701L36.6668 40.6226L36.543 35.687Z" fill="white"/>
</g>
</mask>
<g mask="url(#mask43_165_520)">
<g id="Group_52">
<g id="Clip path group_45">
<mask id="mask44_165_520" style="mask-type:luminance" maskUnits="userSpaceOnUse" x="26" y="35" width="11" height="6">
<g id="clip-path-44_2">
<path id="Vector_64" d="M36.543 35.687L26.7168 35.9346L26.8406 40.8701L36.6668 40.6226L36.543 35.687Z" fill="white"/>
</g>
</mask>
<g mask="url(#mask44_165_520)">
<g id="Group_53">
<path id="Vector_65" d="M26.8223 40.7651V35.8506L36.7193 38.1153L26.8223 40.7651Z" fill="#282829"/>
</g>
</g>
</g>
</g>
</g>
</g>
</g>
</g>
</g>
<g id="Clip path group_46">
<mask id="mask45_165_520" style="mask-type:luminance" maskUnits="userSpaceOnUse" x="22" y="22" width="13" height="8">
<g id="clip-path-46">
<path id="Vector_66" d="M34.007 22.6475H22.709V29.4417H34.007V22.6475Z" fill="white"/>
</g>
</mask>
<g mask="url(#mask45_165_520)">
<g id="Group_54">
<g id="Clip path group_47">
<mask id="mask46_165_520" style="mask-type:luminance" maskUnits="userSpaceOnUse" x="23" y="20" width="12" height="10">
<g id="clip-path-47">
<path id="Vector_67" d="M32.3222 20.6628L23.2793 24.5049L25.2004 29.047L34.2434 25.2049L32.3222 20.6628Z" fill="white"/>
</g>
</mask>
<g mask="url(#mask46_165_520)">
<g id="Group_55">
<g id="Clip path group_48">
<mask id="mask47_165_520" style="mask-type:luminance" maskUnits="userSpaceOnUse" x="23" y="20" width="12" height="10">
<g id="clip-path-47_2">
<path id="Vector_68" d="M32.3222 20.6628L23.2793 24.5049L25.2004 29.047L34.2434 25.2049L32.3222 20.6628Z" fill="white"/>
</g>
</mask>
<g mask="url(#mask47_165_520)">
<g id="Group_56">
<path id="Vector_69" d="M25.2175 29.0339L23.2969 24.5044L33.3069 22.8965L25.2175 29.0339Z" fill="#282829"/>
</g>
</g>
</g>
</g>
</g>
</g>
</g>
</g>
</g>
<g id="Clip path group_49">
<mask id="mask48_165_520" style="mask-type:luminance" maskUnits="userSpaceOnUse" x="13" y="29" width="15" height="12">
<g id="clip-path-49">
<path id="Vector_70" d="M27.2285 29.4414H13.6709V40.7651H27.2285V29.4414Z" fill="white"/>
</g>
</mask>
<g mask="url(#mask48_165_520)">
<g id="Group_57">
<g id="Clip path group_50">
<mask id="mask49_165_520" style="mask-type:luminance" maskUnits="userSpaceOnUse" x="14" y="27" width="15" height="15">
<g id="clip-path-50">
<path id="Vector_71" d="M25.4235 27.8281L14.2861 30.6133L17.065 41.7759L28.2024 38.9907L25.4235 27.8281Z" fill="white"/>
</g>
</mask>
<g mask="url(#mask49_165_520)">
<g id="Group_58">
<g id="Clip path group_51">
<mask id="mask50_165_520" style="mask-type:luminance" maskUnits="userSpaceOnUse" x="14" y="27" width="15" height="15">
<g id="clip-path-50_2">
<path id="Vector_72" d="M25.4235 27.8281L14.2861 30.6133L17.065 41.7759L28.2024 38.9907L25.4235 27.8281Z" fill="white"/>
</g>
</mask>
<g mask="url(#mask50_165_520)">
<g id="Group_59">
<path id="Vector_73" fill-rule="evenodd" clip-rule="evenodd" d="M19.9759 29.6447C21.4947 29.4686 23.0278 29.823 24.3162 30.6482C25.6047 31.4734 26.5697 32.7187 27.0484 34.1742C27.7715 37.073 24.6758 39.7228 21.4898 40.0625C20.0846 40.2061 18.6782 39.8013 17.563 38.9325C16.4478 38.0636 15.7096 36.7974 15.5018 35.3971C15.3519 34.7168 15.3536 34.0118 15.5069 33.3322C15.6602 32.6527 15.9612 32.0154 16.3886 31.466C16.8159 30.9165 17.3591 30.4684 17.9791 30.1535C18.5992 29.8387 19.281 29.665 19.9759 29.6447Z" fill="#282829"/>
</g>
</g>
</g>
</g>
</g>
</g>
</g>
</g>
</g>
<g id="Clip path group_52">
<mask id="mask51_165_520" style="mask-type:luminance" maskUnits="userSpaceOnUse" x="20" y="11" width="42" height="26">
<g id="clip-path-52">
<path id="Vector_74" d="M61.1221 11.3242H20.4492V36.2363H61.1221V11.3242Z" fill="white"/>
</g>
</mask>
<g mask="url(#mask51_165_520)">
<g id="Group_60">
<g id="Clip path group_53">
<mask id="mask52_165_520" style="mask-type:luminance" maskUnits="userSpaceOnUse" x="19" y="12" width="42" height="24">
<g id="clip-path-53">
<path id="Vector_75" d="M57.5362 12.8964L19.3447 22.4473L22.523 35.214L60.7144 25.6631L57.5362 12.8964Z" fill="white"/>
</g>
</mask>
<g mask="url(#mask52_165_520)">
<g id="Group_61">
<g id="Clip path group_54">
<mask id="mask53_165_520" style="mask-type:luminance" maskUnits="userSpaceOnUse" x="19" y="13" width="45" height="36">
<g id="clip-path-54">
<path id="Vector_76" d="M57.6303 13.3375L19.4355 22.875L25.7777 48.3886L63.9724 38.8511L57.6303 13.3375Z" fill="white"/>
</g>
</mask>
<g mask="url(#mask53_165_520)">
<g id="Group_62">
<path id="Vector_77" d="M34.2327 21.039C30.4592 22.3752 26.6856 23.7113 22.9347 25.1381C22.3924 25.3646 21.7597 25.5684 21.6015 26.2026C21.5381 27.071 21.6222 27.944 21.8501 28.7844C22.1438 30.7773 22.4828 32.7929 22.8443 34.7859C23.6578 39.2021 24.6746 43.5957 25.827 47.9667C25.8505 48.0384 25.8959 48.101 25.9566 48.1456C26.0174 48.1903 26.0906 48.2148 26.1659 48.2158C26.2064 48.2189 26.247 48.2136 26.2853 48.2002C26.3236 48.1868 26.3587 48.1656 26.3884 48.138C26.4181 48.1103 26.4418 48.0768 26.458 48.0395C26.4741 48.0022 26.4824 47.962 26.4823 47.9214C34.3156 46.17 42.0585 44.0109 49.711 41.4442C51.6543 40.8101 53.5975 40.1307 55.5182 39.4286L58.0716 38.5001C58.7737 38.3401 59.4209 37.9963 59.947 37.5036C60.2722 36.9017 60.3913 36.2095 60.286 35.5333C60.286 34.4688 60.286 33.4497 60.1504 32.3853C60.0374 30.4829 59.8793 28.5805 59.6985 26.6781C59.2466 22.3072 58.5913 18.0042 57.7326 13.7012C57.725 13.6566 57.708 13.6141 57.6827 13.5767C57.6573 13.5392 57.6243 13.5076 57.5858 13.484C57.5472 13.4604 57.5041 13.4454 57.4593 13.4399C57.4145 13.4343 57.369 13.4385 57.3259 13.4521C49.598 15.8225 41.9003 18.3515 34.2327 21.039Z" fill="#282829"/>
</g>
</g>
</g>
</g>
</g>
</g>
</g>
</g>
</g>
<path id="Vector_78" d="M55.2699 24.0972L51.6094 25.0031C51.5411 25.0241 51.4694 25.0313 51.3984 25.0244C51.3273 25.0175 51.2584 24.9967 51.1954 24.963C51.1324 24.9293 51.0767 24.8835 51.0314 24.8283C50.9861 24.773 50.9522 24.7092 50.9315 24.6408L49.1916 17.7107C49.1749 17.6323 49.1758 17.5513 49.194 17.4733C49.2122 17.3953 49.2474 17.3223 49.2971 17.2596C49.3468 17.1968 49.4096 17.1459 49.4812 17.1103C49.5529 17.0747 49.6314 17.0555 49.7113 17.0539L53.3945 16.1254C53.5352 16.09 53.684 16.1103 53.8102 16.182C53.9364 16.2537 54.0303 16.3712 54.0724 16.5104L55.7897 23.4405C55.8063 23.5188 55.8055 23.5999 55.7873 23.6778C55.769 23.7558 55.7338 23.8288 55.6842 23.8916C55.6345 23.9543 55.5716 24.0053 55.5 24.0408C55.4284 24.0764 55.3498 24.0957 55.2699 24.0972Z" fill="#FBD458"/>
<path id="Vector_79" d="M47.0679 26.0677L44.6275 26.6792C44.5228 26.6992 44.4143 26.6773 44.3255 26.6179C44.2368 26.5586 44.1748 26.4668 44.153 26.3621L42.7747 20.8135C42.7717 20.7228 42.7959 20.6333 42.8442 20.5566C42.8926 20.4798 42.9628 20.4194 43.0458 20.3832L45.4862 19.7944C45.591 19.7743 45.6994 19.7963 45.7882 19.8556C45.8769 19.9149 45.9389 20.0068 45.9607 20.1114L47.452 25.5694C47.4654 25.6281 47.4657 25.6891 47.4527 25.7478C47.4398 25.8066 47.4141 25.8618 47.3774 25.9095C47.3406 25.9571 47.2938 25.996 47.2403 26.0234C47.1868 26.0507 47.1279 26.0658 47.0679 26.0677Z" fill="#FBD458"/>
<g id="Clip path group_55">
<mask id="mask54_165_520" style="mask-type:luminance" maskUnits="userSpaceOnUse" x="22" y="31" width="42" height="17">
<g id="clip-path-55">
<path id="Vector_80" d="M63.3819 31.7061H22.709V47.5592H63.3819V31.7061Z" fill="white"/>
</g>
</mask>
<g mask="url(#mask54_165_520)">
<g id="Group_63">
<g id="Clip path group_56">
<mask id="mask55_165_520" style="mask-type:luminance" maskUnits="userSpaceOnUse" x="23" y="32" width="41" height="15">
<g id="clip-path-56">
<path id="Vector_81" d="M63.0149 32.2329L23.6699 33.4033L24.0594 46.5556L63.4044 45.3853L63.0149 32.2329Z" fill="white"/>
</g>
</mask>
<g mask="url(#mask55_165_520)">
<g id="Group_64">
<g id="Clip path group_57">
<mask id="mask56_165_520" style="mask-type:luminance" maskUnits="userSpaceOnUse" x="23" y="19" width="41" height="28">
<g id="clip-path-57">
<path id="Vector_82" d="M62.6477 19.063L23.3027 20.2334L24.081 46.5154L63.426 45.345L62.6477 19.063Z" fill="white"/>
</g>
</mask>
<g mask="url(#mask56_165_520)">
<g id="Group_65">
<path id="Vector_83" d="M38.1193 21.6263C34.165 22.1245 30.1881 22.6228 26.2112 23.2116C25.6237 23.2116 24.9458 23.3702 24.6521 23.959C24.4135 24.7974 24.3217 25.6709 24.3809 26.5408C24.2227 28.5564 24.1324 30.5947 24.0646 32.6329C23.929 37.1624 23.929 41.6919 24.0646 46.2213C24.0644 46.3016 24.0946 46.379 24.1491 46.4379C24.2036 46.4967 24.2784 46.5326 24.3583 46.5384C24.3969 46.5484 24.4372 46.5504 24.4766 46.5444C24.5161 46.5383 24.5538 46.5242 24.5877 46.503C24.6215 46.4818 24.6507 46.454 24.6734 46.4211C24.6961 46.3883 24.7119 46.3511 24.7199 46.3119C32.7189 46.3119 40.7179 45.7684 48.6717 44.9304C50.7053 44.704 52.7616 44.4775 54.7726 44.1831L57.5519 43.8207C58.2667 43.8074 58.9664 43.6126 59.5856 43.2545C60.0382 42.73 60.3009 42.0676 60.3312 41.3748C60.512 40.3557 60.7154 39.3365 60.8736 38.2948C61.1447 36.415 61.4159 34.5126 61.6418 32.6103C62.1389 28.262 62.4176 23.8986 62.4779 19.5201C62.4779 19.2936 62.3423 19.1804 62.1163 19.203C54.1926 19.8221 46.1936 20.6298 38.1193 21.6263Z" fill="#282829"/>
</g>
</g>
</g>
</g>
</g>
</g>
</g>
</g>
</g>
<g id="Clip path group_58">
<mask id="mask57_165_520" style="mask-type:luminance" maskUnits="userSpaceOnUse" x="18" y="38" width="17" height="15">
<g id="clip-path-58">
<path id="Vector_84" d="M34.0067 38.5H18.1895V52.0884H34.0067V38.5Z" fill="white"/>
</g>
</mask>
<g mask="url(#mask57_165_520)">
<g id="Group_66">
<g id="Clip path group_59">
<mask id="mask58_165_520" style="mask-type:luminance" maskUnits="userSpaceOnUse" x="19" y="38" width="16" height="17">
<g id="clip-path-59">
<path id="Vector_85" d="M23.5187 38.6202L19.4814 51.1406L30.404 54.6786L34.4412 42.1582L23.5187 38.6202Z" fill="white"/>
</g>
</mask>
<g mask="url(#mask58_165_520)">
<g id="Group_67">
<g id="Clip path group_60">
<mask id="mask59_165_520" style="mask-type:luminance" maskUnits="userSpaceOnUse" x="19" y="38" width="16" height="17">
<g id="clip-path-59_2">
<path id="Vector_86" d="M23.5187 38.6202L19.4814 51.1406L30.404 54.6786L34.4412 42.1582L23.5187 38.6202Z" fill="white"/>
</g>
</mask>
<g mask="url(#mask59_165_520)">
<g id="Group_68">
<path id="Vector_87" d="M21.0144 51.2276L31.5667 48.9629C32.0186 48.9629 32.2898 48.7138 32.3576 48.4647C32.4254 48.2155 32.3576 47.9211 31.996 47.6041L24.8557 39.4737C24.7492 39.3304 24.6038 39.2209 24.4368 39.1583C24.2698 39.0958 24.0884 39.0829 23.9142 39.1211C23.7401 39.1594 23.5807 39.2472 23.4551 39.374C23.3295 39.5008 23.2431 39.6612 23.2062 39.836L19.8846 49.9367C19.6134 50.7747 20.1331 51.3409 21.0144 51.2276Z" fill="#FBD458"/>
</g>
</g>
</g>
</g>
</g>
</g>
</g>
</g>
</g>
<g id="Clip path group_61">
<mask id="mask60_165_520" style="mask-type:luminance" maskUnits="userSpaceOnUse" x="15" y="18" width="22" height="14">
<g id="clip-path-61">
<path id="Vector_88" d="M36.2671 18.1182H15.9307V31.7066H36.2671V18.1182Z" fill="white"/>
</g>
</mask>
<g mask="url(#mask60_165_520)">
<g id="Group_69">
<g id="Clip path group_62">
<mask id="mask61_165_520" style="mask-type:luminance" maskUnits="userSpaceOnUse" x="18" y="15" width="19" height="15">
<g id="clip-path-62">
<path id="Vector_89" d="M33.193 15.7141L18.0879 22.1279L21.2875 29.6976L36.3926 23.2838L33.193 15.7141Z" fill="white"/>
</g>
</mask>
<g mask="url(#mask61_165_520)">
<g id="Group_70">
<g id="Clip path group_63">
<mask id="mask62_165_520" style="mask-type:luminance" maskUnits="userSpaceOnUse" x="18" y="15" width="19" height="15">
<g id="clip-path-62_2">
<path id="Vector_90" d="M33.193 15.7141L18.0879 22.1279L21.2875 29.6976L36.3926 23.2838L33.193 15.7141Z" fill="white"/>
</g>
</mask>
<g mask="url(#mask62_165_520)">
<g id="Group_71">
<path id="Vector_91" d="M21.3084 29.6903L18.0771 22.1261L34.7982 19.499L21.3084 29.6903Z" fill="#FBD458"/>
</g>
</g>
</g>
</g>
</g>
</g>
</g>
</g>
</g>
<g id="Clip path group_64">
<mask id="mask63_165_520" style="mask-type:luminance" maskUnits="userSpaceOnUse" x="20" y="18" width="15" height="14">
<g id="clip-path-64">
<path id="Vector_92" d="M34.0069 18.1182H20.4492V31.7066H34.0069V18.1182Z" fill="white"/>
</g>
</mask>
<g mask="url(#mask63_165_520)">
<g id="Group_72">
<g id="Clip path group_65">
<mask id="mask64_165_520" style="mask-type:luminance" maskUnits="userSpaceOnUse" x="15" y="14" width="19" height="18">
<g id="clip-path-65">
<path id="Vector_93" d="M26.2417 14.1726L15.9717 22.3691L23.1221 31.3692L33.3921 23.1727L26.2417 14.1726Z" fill="white"/>
</g>
</mask>
<g mask="url(#mask64_165_520)">
<g id="Group_73">
<g id="Clip path group_66">
<mask id="mask65_165_520" style="mask-type:luminance" maskUnits="userSpaceOnUse" x="15" y="14" width="19" height="18">
<g id="clip-path-65_2">
<path id="Vector_94" d="M26.2417 14.1726L15.9717 22.3691L23.1221 31.3692L33.3921 23.1727L26.2417 14.1726Z" fill="white"/>
</g>
</mask>
<g mask="url(#mask65_165_520)">
<g id="Group_74">
<path id="Vector_95" d="M32.1537 22.2622L22.1211 18.2989C21.9785 18.2108 21.8142 18.1641 21.6466 18.1641C21.479 18.1641 21.3147 18.2108 21.1721 18.2989C21.0633 18.4243 20.991 18.5772 20.9631 18.741C20.9352 18.9048 20.9528 19.0731 21.0139 19.2275L22.5956 29.9623C22.6041 30.1422 22.6646 30.3157 22.7697 30.4617C22.8748 30.6077 23.02 30.72 23.1876 30.7848C23.3552 30.8496 23.538 30.8641 23.7138 30.8267C23.8895 30.7892 24.0505 30.7014 24.1773 30.5738L32.4701 23.9608C32.6277 23.8618 32.7519 23.7176 32.8266 23.5468C32.9013 23.3761 32.923 23.1868 32.8889 23.0036C32.8548 22.8203 32.7664 22.6516 32.6353 22.5194C32.5042 22.3872 32.3364 22.2976 32.1537 22.2622Z" fill="#282829"/>
</g>
</g>
</g>
</g>
</g>
</g>
</g>
</g>
</g>
<g id="Clip path group_67">
<mask id="mask66_165_520" style="mask-type:luminance" maskUnits="userSpaceOnUse" x="22" y="27" width="15" height="7">
<g id="clip-path-67">
<path id="Vector_96" d="M36.2666 27.1768H22.709V33.971H36.2666V27.1768Z" fill="white"/>
</g>
</mask>
<g mask="url(#mask66_165_520)">
<g id="Group_75">
<g id="Clip path group_68">
<mask id="mask67_165_520" style="mask-type:luminance" maskUnits="userSpaceOnUse" x="23" y="28" width="12" height="6">
<g id="clip-path-68">
<path id="Vector_97" d="M34.6345 28.6222L23.1592 28.9053L23.2804 33.8409L34.7557 33.5578L34.6345 28.6222Z" fill="white"/>
</g>
</mask>
<g mask="url(#mask67_165_520)">
<g id="Group_76">
<g id="Clip path group_69">
<mask id="mask68_165_520" style="mask-type:luminance" maskUnits="userSpaceOnUse" x="23" y="28" width="12" height="6">
<g id="clip-path-68_2">
<path id="Vector_98" d="M34.6345 28.6222L23.1592 28.9053L23.2804 33.8409L34.7557 33.5578L34.6345 28.6222Z" fill="white"/>
</g>
</mask>
<g mask="url(#mask68_165_520)">
<g id="Group_77">
<path id="Vector_99" d="M23.2966 33.8354L23.1836 28.9209L34.7076 31.1856L23.2966 33.8354Z" fill="#282829"/>
</g>
</g>
</g>
</g>
</g>
</g>
</g>
</g>
</g>
<g id="Clip path group_70">
<mask id="mask69_165_520" style="mask-type:luminance" maskUnits="userSpaceOnUse" x="18" y="27" width="7" height="7">
<g id="clip-path-70">
<path id="Vector_100" d="M24.9683 27.1768H18.1895V33.971H24.9683V27.1768Z" fill="white"/>
</g>
</mask>
<g mask="url(#mask69_165_520)">
<g id="Group_78">
<g id="Clip path group_71">
<mask id="mask70_165_520" style="mask-type:luminance" maskUnits="userSpaceOnUse" x="18" y="27" width="7" height="7">
<g id="clip-path-71">
<path id="Vector_101" d="M20.0375 27.4095L18.9932 32.2344L23.8071 33.2811L24.8515 28.4562L20.0375 27.4095Z" fill="white"/>
</g>
</mask>
<g mask="url(#mask70_165_520)">
<g id="Group_79">
<g id="Clip path group_72">
<mask id="mask71_165_520" style="mask-type:luminance" maskUnits="userSpaceOnUse" x="18" y="27" width="7" height="7">
<g id="clip-path-71_2">
<path id="Vector_102" d="M20.0375 27.4095L18.9932 32.2344L23.8071 33.2811L24.8515 28.4562L20.0375 27.4095Z" fill="white"/>
</g>
</mask>
<g mask="url(#mask71_165_520)">
<g id="Group_80">
<path id="Vector_103" d="M23.793 32.589L22.5954 28.2634C22.5954 28.0595 22.5954 27.9463 22.3921 27.9463C22.1887 27.9463 22.1887 27.9463 22.0531 28.1501L19.2738 31.7057C19.0705 32.0002 19.1382 32.3172 19.4546 32.3852L23.3411 33.2458C23.6575 33.2231 23.8608 32.974 23.793 32.589Z" fill="#282829"/>
</g>
</g>
</g>
</g>
</g>
</g>
</g>
</g>
</g>
<path id="Vector_104" d="M19.5226 33.6088C19.316 33.6598 19.1376 33.7899 19.0255 33.9712C18.9472 34.1753 18.9472 34.4012 19.0255 34.6053C19.0509 34.7108 19.0983 34.8097 19.1645 34.8956C19.2307 34.9814 19.3142 35.0523 19.4097 35.1036C19.5052 35.1481 19.6093 35.1712 19.7147 35.1712C19.8201 35.1712 19.9242 35.1481 20.0198 35.1036C20.1488 35.0449 20.2586 34.9507 20.3361 34.8318C20.4485 34.6492 20.4888 34.4311 20.4491 34.2203C20.3895 34.0052 20.2527 33.8197 20.065 33.6994C19.8984 33.612 19.7084 33.5803 19.5226 33.6088Z" fill="#FBD458"/>
<g id="Clip path group_73">
<mask id="mask72_165_520" style="mask-type:luminance" maskUnits="userSpaceOnUse" x="2" y="20" width="19" height="19">
<g id="clip-path-73">
<path id="Vector_105" d="M20.4489 20.3828H2.37207V38.5007H20.4489V20.3828Z" fill="white"/>
</g>
</mask>
<g mask="url(#mask72_165_520)">
<g id="Group_81">
<g id="Clip path group_74">
<mask id="mask73_165_520" style="mask-type:luminance" maskUnits="userSpaceOnUse" x="1" y="19" width="21" height="21">
<g id="clip-path-74">
<path id="Vector_106" d="M17.5526 19.8052L1.63379 23.7773L5.5969 39.7323L21.5157 35.7602L17.5526 19.8052Z" fill="white"/>
</g>
</mask>
<g mask="url(#mask73_165_520)">
<g id="Group_82">
<g id="Clip path group_75">
<mask id="mask74_165_520" style="mask-type:luminance" maskUnits="userSpaceOnUse" x="1" y="19" width="21" height="21">
<g id="clip-path-74_2">
<path id="Vector_107" d="M17.5526 19.8052L1.63379 23.7773L5.5969 39.7323L21.5157 35.7602L17.5526 19.8052Z" fill="white"/>
</g>
</mask>
<g mask="url(#mask74_165_520)">
<g id="Group_83">
<path id="Vector_108" d="M9.58032 21.7881C8.53076 22.0297 7.54471 22.4929 6.68802 23.1469C5.79654 23.7492 5.02933 24.5182 4.42842 25.4117C3.88236 26.3369 3.52162 27.3601 3.3664 28.4238C3.22849 29.5227 3.30523 30.6381 3.59236 31.7076C4.12903 33.8211 5.47725 35.6364 7.34331 36.758C8.26057 37.3221 9.28331 37.692 10.3486 37.8451C11.4155 38.0143 12.5049 37.9758 13.5572 37.7318C14.6048 37.4727 15.5889 37.0027 16.4495 36.3503C17.3474 35.7559 18.1161 34.9856 18.7091 34.0856C19.2522 33.1508 19.6127 32.1209 19.7711 31.0509C19.9409 29.9881 19.8947 28.902 19.6356 27.8576C19.3237 26.7791 18.7929 25.7767 18.0764 24.9134C17.4954 24.0037 16.7245 23.2311 15.8168 22.6487C14.8996 22.0846 13.8768 21.7147 12.8116 21.5616C11.7304 21.4148 10.6306 21.4919 9.58032 21.7881ZM12.4048 33.1118C11.9574 33.2021 11.4965 33.2021 11.0491 33.1118C10.5928 33.0394 10.1552 32.8778 9.76108 32.6362C9.36121 32.4012 9.01484 32.0849 8.74426 31.7076C8.46385 31.3465 8.26356 30.9296 8.15676 30.4847C8.06723 30.0286 8.06723 29.5593 8.15676 29.1032C8.22148 28.6473 8.37503 28.2087 8.60869 27.8123C8.84316 27.4115 9.15874 27.0644 9.53512 26.7932C9.90912 26.5209 10.3306 26.3212 10.7779 26.2043C11.2253 26.114 11.6862 26.114 12.1337 26.2043C12.5947 26.2729 13.039 26.4265 13.4442 26.6573C13.8285 26.913 14.1714 27.2261 14.4611 27.5858C14.7261 27.9616 14.9178 28.3842 15.026 28.8314C15.128 29.2862 15.128 29.7581 15.026 30.2129C14.9539 30.6669 14.8008 31.1042 14.574 31.5038C14.3396 31.9046 14.024 32.2517 13.6476 32.5229C13.2819 32.8237 12.8591 33.0472 12.4048 33.1797V33.1118Z" fill="#282829"/>
</g>
</g>
</g>
</g>
</g>
</g>
</g>
</g>
</g>
<g id="Clip path group_76">
<mask id="mask75_165_520" style="mask-type:luminance" maskUnits="userSpaceOnUse" x="6" y="33" width="19" height="22">
<g id="clip-path-76">
<path id="Vector_109" d="M24.9694 33.9707H6.89258V54.3533H24.9694V33.9707Z" fill="white"/>
</g>
</mask>
<g mask="url(#mask75_165_520)">
<g id="Group_84">
<g id="Clip path group_77">
<mask id="mask76_165_520" style="mask-type:luminance" maskUnits="userSpaceOnUse" x="5" y="34" width="21" height="21">
<g id="clip-path-77">
<path id="Vector_110" d="M21.1659 34.3707L5.24707 38.3428L9.21018 54.2977L25.129 50.3256L21.1659 34.3707Z" fill="white"/>
</g>
</mask>
<g mask="url(#mask76_165_520)">
<g id="Group_85">
<g id="Clip path group_78">
<mask id="mask77_165_520" style="mask-type:luminance" maskUnits="userSpaceOnUse" x="5" y="34" width="21" height="21">
<g id="clip-path-77_2">
<path id="Vector_111" d="M21.1659 34.3707L5.24707 38.3428L9.21018 54.2977L25.129 50.3256L21.1659 34.3707Z" fill="white"/>
</g>
</mask>
<g mask="url(#mask77_165_520)">
<g id="Group_86">
<path id="Vector_112" d="M13.1965 36.371C12.1513 36.6278 11.1675 37.0904 10.3024 37.7319C9.4373 38.3735 8.70821 39.1811 8.1576 40.1079C7.60936 41.0015 7.2409 41.9939 7.07299 43.0294C6.75746 45.1878 7.30121 47.384 8.58693 49.1442C9.18606 50.0391 9.95359 50.8084 10.8465 51.4089C11.7736 51.9696 12.803 52.3392 13.8744 52.496C16.0206 52.8085 18.2035 52.2636 19.9527 50.9786C21.6944 49.677 22.8551 47.7408 23.184 45.5885C23.3463 44.5167 23.2925 43.4232 23.0258 42.3726C22.7759 41.3237 22.3145 40.3372 21.67 39.4737C21.0311 38.5736 20.2257 37.8047 19.2975 37.209C18.4044 36.7019 17.4225 36.3713 16.4052 36.2352C15.3367 36.0762 14.2478 36.1223 13.1965 36.371ZM16.0436 47.6947C15.5886 47.7856 15.1202 47.7856 14.6653 47.6947C14.2084 47.6247 13.7703 47.4629 13.3773 47.2191C12.9829 46.9862 12.6375 46.6785 12.3605 46.3132C12.1118 46.007 11.9135 45.663 11.773 45.2941C11.6829 44.838 11.6829 44.3687 11.773 43.9126C11.8429 43.4547 12.0043 43.0156 12.2475 42.6217C12.4972 42.2154 12.826 41.8637 13.2142 41.5875C13.6024 41.3112 14.0421 41.1161 14.5071 41.0138C14.9235 40.8457 15.3688 40.761 15.8177 40.7646C16.2765 40.8268 16.7162 40.9891 17.1056 41.2402C17.5055 41.4752 17.8519 41.7915 18.1225 42.1688C18.3984 42.5327 18.5982 42.9486 18.71 43.3917C18.7995 43.8479 18.7995 44.3171 18.71 44.7732C18.648 45.2331 18.486 45.6738 18.2354 46.0641C18.0092 46.4639 17.7012 46.8112 17.3316 47.0832C16.9513 47.3928 16.5135 47.6238 16.0436 47.7627V47.6947Z" fill="#282829"/>
</g>
</g>
</g>
</g>
</g>
</g>
</g>
</g>
</g>
</g>
</g>
</svg>
