<svg width="326" height="60" viewBox="0 0 326 60" fill="none" xmlns="http://www.w3.org/2000/svg">
<path d="M0.75 13.8125H5.625V11.3125C5.625 8.52083 5.91667 6.4375 6.5 5.0625C7.10417 3.6875 8.19792 2.57292 9.78125 1.71875C11.3854 0.84375 13.4062 0.40625 15.8438 0.40625C18.3438 0.40625 20.7917 0.78125 23.1875 1.53125L22 7.65625C20.6042 7.32292 19.2604 7.15625 17.9688 7.15625C16.6979 7.15625 15.7812 7.45833 15.2188 8.0625C14.6771 8.64583 14.4062 9.78125 14.4062 11.4688V13.8125H20.9688V20.7188H14.4062V47H5.625V20.7188H0.75V13.8125ZM25.9062 9.3125V1.1875H34.6875V9.3125H25.9062ZM25.9062 47V13.8125H34.6875V47H25.9062ZM52.125 47H43.3438V13.8125H51.5V18.5312C52.8958 16.3021 54.1458 14.8333 55.25 14.125C56.375 13.4167 57.6458 13.0625 59.0625 13.0625C61.0625 13.0625 62.9896 13.6146 64.8438 14.7188L62.125 22.375C60.6458 21.4167 59.2708 20.9375 58 20.9375C56.7708 20.9375 55.7292 21.2812 54.875 21.9688C54.0208 22.6354 53.3438 23.8542 52.8438 25.625C52.3646 27.3958 52.125 31.1042 52.125 36.75V47ZM65.5625 37.5312L74.375 36.1875C74.75 37.8958 75.5104 39.1979 76.6562 40.0938C77.8021 40.9688 79.4062 41.4062 81.4688 41.4062C83.7396 41.4062 85.4479 40.9896 86.5938 40.1562C87.3646 39.5729 87.75 38.7917 87.75 37.8125C87.75 37.1458 87.5417 36.5938 87.125 36.1562C86.6875 35.7396 85.7083 35.3542 84.1875 35C77.1042 33.4375 72.6146 32.0104 70.7188 30.7188C68.0938 28.9271 66.7812 26.4375 66.7812 23.25C66.7812 20.375 67.9167 17.9583 70.1875 16C72.4583 14.0417 75.9792 13.0625 80.75 13.0625C85.2917 13.0625 88.6667 13.8021 90.875 15.2812C93.0833 16.7604 94.6042 18.9479 95.4375 21.8438L87.1562 23.375C86.8021 22.0833 86.125 21.0938 85.125 20.4062C84.1458 19.7188 82.7396 19.375 80.9062 19.375C78.5938 19.375 76.9375 19.6979 75.9375 20.3438C75.2708 20.8021 74.9375 21.3958 74.9375 22.125C74.9375 22.75 75.2292 23.2812 75.8125 23.7188C76.6042 24.3021 79.3333 25.125 84 26.1875C88.6875 27.25 91.9583 28.5521 93.8125 30.0938C95.6458 31.6562 96.5625 33.8333 96.5625 36.625C96.5625 39.6667 95.2917 42.2812 92.75 44.4688C90.2083 46.6562 86.4479 47.75 81.4688 47.75C76.9479 47.75 73.3646 46.8333 70.7188 45C68.0938 43.1667 66.375 40.6771 65.5625 37.5312ZM119.5 13.8125V20.8125H113.5V34.1875C113.5 36.8958 113.552 38.4792 113.656 38.9375C113.781 39.375 114.042 39.7396 114.438 40.0312C114.854 40.3229 115.354 40.4688 115.938 40.4688C116.75 40.4688 117.927 40.1875 119.469 39.625L120.219 46.4375C118.177 47.3125 115.865 47.75 113.281 47.75C111.698 47.75 110.271 47.4896 109 46.9688C107.729 46.4271 106.792 45.7396 106.188 44.9062C105.604 44.0521 105.198 42.9062 104.969 41.4688C104.781 40.4479 104.688 38.3854 104.688 35.2812V20.8125H100.656V13.8125H104.688V7.21875L113.5 2.09375V13.8125H119.5ZM122.5 37.5312L131.312 36.1875C131.688 37.8958 132.448 39.1979 133.594 40.0938C134.74 40.9688 136.344 41.4062 138.406 41.4062C140.677 41.4062 142.385 40.9896 143.531 40.1562C144.302 39.5729 144.688 38.7917 144.688 37.8125C144.688 37.1458 144.479 36.5938 144.062 36.1562C143.625 35.7396 142.646 35.3542 141.125 35C134.042 33.4375 129.552 32.0104 127.656 30.7188C125.031 28.9271 123.719 26.4375 123.719 23.25C123.719 20.375 124.854 17.9583 127.125 16C129.396 14.0417 132.917 13.0625 137.688 13.0625C142.229 13.0625 145.604 13.8021 147.812 15.2812C150.021 16.7604 151.542 18.9479 152.375 21.8438L144.094 23.375C143.74 22.0833 143.062 21.0938 142.062 20.4062C141.083 19.7188 139.677 19.375 137.844 19.375C135.531 19.375 133.875 19.6979 132.875 20.3438C132.208 20.8021 131.875 21.3958 131.875 22.125C131.875 22.75 132.167 23.2812 132.75 23.7188C133.542 24.3021 136.271 25.125 140.938 26.1875C145.625 27.25 148.896 28.5521 150.75 30.0938C152.583 31.6562 153.5 33.8333 153.5 36.625C153.5 39.6667 152.229 42.2812 149.688 44.4688C147.146 46.6562 143.385 47.75 138.406 47.75C133.885 47.75 130.302 46.8333 127.656 45C125.031 43.1667 123.312 40.6771 122.5 37.5312ZM176.438 13.8125V20.8125H170.438V34.1875C170.438 36.8958 170.49 38.4792 170.594 38.9375C170.719 39.375 170.979 39.7396 171.375 40.0312C171.792 40.3229 172.292 40.4688 172.875 40.4688C173.688 40.4688 174.865 40.1875 176.406 39.625L177.156 46.4375C175.115 47.3125 172.802 47.75 170.219 47.75C168.635 47.75 167.208 47.4896 165.938 46.9688C164.667 46.4271 163.729 45.7396 163.125 44.9062C162.542 44.0521 162.135 42.9062 161.906 41.4688C161.719 40.4479 161.625 38.3854 161.625 35.2812V20.8125H157.594V13.8125H161.625V7.21875L170.438 2.09375V13.8125H176.438ZM201.75 36.4375L210.5 37.9062C209.375 41.1146 207.594 43.5625 205.156 45.25C202.74 46.9167 199.708 47.75 196.062 47.75C190.292 47.75 186.021 45.8646 183.25 42.0938C181.062 39.0729 179.969 35.2604 179.969 30.6562C179.969 25.1562 181.406 20.8542 184.281 17.75C187.156 14.625 190.792 13.0625 195.188 13.0625C200.125 13.0625 204.021 14.6979 206.875 17.9688C209.729 21.2188 211.094 26.2083 210.969 32.9375H188.969C189.031 35.5417 189.74 37.5729 191.094 39.0312C192.448 40.4688 194.135 41.1875 196.156 41.1875C197.531 41.1875 198.688 40.8125 199.625 40.0625C200.562 39.3125 201.271 38.1042 201.75 36.4375ZM202.25 27.5625C202.188 25.0208 201.531 23.0938 200.281 21.7812C199.031 20.4479 197.51 19.7812 195.719 19.7812C193.802 19.7812 192.219 20.4792 190.969 21.875C189.719 23.2708 189.104 25.1667 189.125 27.5625H202.25ZM217.906 13.8125H226.094V18.6875C227.156 17.0208 228.594 15.6667 230.406 14.625C232.219 13.5833 234.229 13.0625 236.438 13.0625C240.292 13.0625 243.562 14.5729 246.25 17.5938C248.938 20.6146 250.281 24.8229 250.281 30.2188C250.281 35.7604 248.927 40.0729 246.219 43.1562C243.51 46.2188 240.229 47.75 236.375 47.75C234.542 47.75 232.875 47.3854 231.375 46.6562C229.896 45.9271 228.333 44.6771 226.688 42.9062V59.625H217.906V13.8125ZM226.594 29.8438C226.594 33.5729 227.333 36.3333 228.812 38.125C230.292 39.8958 232.094 40.7812 234.219 40.7812C236.26 40.7812 237.958 39.9688 239.312 38.3438C240.667 36.6979 241.344 34.0104 241.344 30.2812C241.344 26.8021 240.646 24.2188 239.25 22.5312C237.854 20.8438 236.125 20 234.062 20C231.917 20 230.135 20.8333 228.719 22.5C227.302 24.1458 226.594 26.5938 226.594 29.8438ZM257.281 47V38.2188H266.062V47H257.281ZM275.094 9.3125V1.1875H283.875V9.3125H275.094ZM275.094 47V13.8125H283.875V47H275.094ZM290.875 29.9375C290.875 27.0208 291.594 24.1979 293.031 21.4688C294.469 18.7396 296.5 16.6562 299.125 15.2188C301.771 13.7812 304.719 13.0625 307.969 13.0625C312.99 13.0625 317.104 14.6979 320.312 17.9688C323.521 21.2188 325.125 25.3333 325.125 30.3125C325.125 35.3333 323.5 39.5 320.25 42.8125C317.021 46.1042 312.948 47.75 308.031 47.75C304.99 47.75 302.083 47.0625 299.312 45.6875C296.562 44.3125 294.469 42.3021 293.031 39.6562C291.594 36.9896 290.875 33.75 290.875 29.9375ZM299.875 30.4062C299.875 33.6979 300.656 36.2188 302.219 37.9688C303.781 39.7188 305.708 40.5938 308 40.5938C310.292 40.5938 312.208 39.7188 313.75 37.9688C315.312 36.2188 316.094 33.6771 316.094 30.3438C316.094 27.0938 315.312 24.5938 313.75 22.8438C312.208 21.0938 310.292 20.2188 308 20.2188C305.708 20.2188 303.781 21.0938 302.219 22.8438C300.656 24.5938 299.875 27.1146 299.875 30.4062Z" fill="black"/>
</svg>
